<?xml version="1.0" encoding="utf-8" ?>
<svg baseProfile="full" height="1280px" version="1.1" width="1280px" xmlns="http://www.w3.org/2000/svg" xmlns:ev="http://www.w3.org/2001/xml-events" xmlns:xlink="http://www.w3.org/1999/xlink"><defs /><rect fill="rgb(16,16,16)" height="40px" width="40px" x="520px" y="240px" /><rect fill="rgb(16,16,16)" height="40px" width="40px" x="560px" y="240px" /><rect fill="rgb(16,16,16)" height="40px" width="40px" x="600px" y="240px" /><rect fill="rgb(16,16,16)" height="40px" width="40px" x="640px" y="240px" /><rect fill="rgb(16,16,16)" height="40px" width="40px" x="680px" y="240px" /><rect fill="rgb(16,16,16)" height="40px" width="40px" x="720px" y="240px" /><rect fill="rgb(16,16,16)" height="40px" width="40px" x="480px" y="280px" /><rect fill="rgb(138,251,13)" height="40px" width="40px" x="520px" y="280px" /><rect fill="rgb(138,251,13)" height="40px" width="40px" x="560px" y="280px" /><rect fill="rgb(138,251,13)" height="40px" width="40px" x="600px" y="280px" /><rect fill="rgb(138,251,13)" height="40px" width="40px" x="640px" y="280px" /><rect fill="rgb(138,251,13)" height="40px" width="40px" x="680px" y="280px" /><rect fill="rgb(138,251,13)" height="40px" width="40px" x="720px" y="280px" /><rect fill="rgb(16,16,16)" height="40px" width="40px" x="760px" y="280px" /><rect fill="rgb(16,16,16)" height="40px" width="40px" x="440px" y="320px" /><rect fill="rgb(105,200,0)" height="40px" width="40px" x="480px" y="320px" /><rect fill="rgb(138,251,13)" height="40px" width="40px" x="520px" y="320px" /><rect fill="rgb(138,251,13)" height="40px" width="40px" x="560px" y="320px" /><rect fill="rgb(138,251,13)" height="40px" width="40px" x="600px" y="320px" /><rect fill="rgb(138,251,13)" height="40px" width="40px" x="640px" y="320px" /><rect fill="rgb(138,251,13)" height="40px" width="40px" x="680px" y="320px" /><rect fill="rgb(138,251,13)" height="40px" width="40px" x="720px" y="320px" /><rect fill="rgb(138,251,13)" height="40px" width="40px" x="760px" y="320px" /><rect fill="rgb(16,16,16)" height="40px" width="40px" x="800px" y="320px" /><rect fill="rgb(16,16,16)" height="40px" width="40px" x="400px" y="360px" /><rect fill="rgb(64,118,4)" height="40px" width="40px" x="440px" y="360px" /><rect fill="rgb(105,200,0)" height="40px" width="40px" x="480px" y="360px" /><rect fill="rgb(138,251,13)" height="40px" width="40px" x="520px" y="360px" /><rect fill="rgb(138,251,13)" height="40px" width="40px" x="560px" y="360px" /><rect fill="rgb(138,251,13)" height="40px" width="40px" x="600px" y="360px" /><rect fill="rgb(138,251,13)" height="40px" width="40px" x="640px" y="360px" /><rect fill="rgb(138,251,13)" height="40px" width="40px" x="680px" y="360px" /><rect fill="rgb(138,251,13)" height="40px" width="40px" x="720px" y="360px" /><rect fill="rgb(138,251,13)" height="40px" width="40px" x="760px" y="360px" /><rect fill="rgb(138,251,13)" height="40px" width="40px" x="800px" y="360px" /><rect fill="rgb(16,16,16)" height="40px" width="40px" x="840px" y="360px" /><rect fill="rgb(16,16,16)" height="40px" width="40px" x="400px" y="400px" /><rect fill="rgb(64,118,4)" height="40px" width="40px" x="440px" y="400px" /><rect fill="rgb(105,200,0)" height="40px" width="40px" x="480px" y="400px" /><rect fill="rgb(138,251,13)" height="40px" width="40px" x="520px" y="400px" /><rect fill="rgb(138,251,13)" height="40px" width="40px" x="560px" y="400px" /><rect fill="rgb(138,251,13)" height="40px" width="40px" x="600px" y="400px" /><rect fill="rgb(138,251,13)" height="40px" width="40px" x="640px" y="400px" /><rect fill="rgb(138,251,13)" height="40px" width="40px" x="680px" y="400px" /><rect fill="rgb(138,251,13)" height="40px" width="40px" x="720px" y="400px" /><rect fill="rgb(138,251,13)" height="40px" width="40px" x="760px" y="400px" /><rect fill="rgb(138,251,13)" height="40px" width="40px" x="800px" y="400px" /><rect fill="rgb(16,16,16)" height="40px" width="40px" x="840px" y="400px" /><rect fill="rgb(16,16,16)" height="40px" width="40px" x="440px" y="440px" /><rect fill="rgb(105,200,0)" height="40px" width="40px" x="480px" y="440px" /><rect fill="rgb(105,200,0)" height="40px" width="40px" x="520px" y="440px" /><rect fill="rgb(138,251,13)" height="40px" width="40px" x="560px" y="440px" /><rect fill="rgb(138,251,13)" height="40px" width="40px" x="600px" y="440px" /><rect fill="rgb(138,251,13)" height="40px" width="40px" x="640px" y="440px" /><rect fill="rgb(138,251,13)" height="40px" width="40px" x="680px" y="440px" /><rect fill="rgb(138,251,13)" height="40px" width="40px" x="720px" y="440px" /><rect fill="rgb(138,251,13)" height="40px" width="40px" x="760px" y="440px" /><rect fill="rgb(16,16,16)" height="40px" width="40px" x="800px" y="440px" /><rect fill="rgb(16,16,16)" height="40px" width="40px" x="440px" y="480px" /><rect fill="rgb(64,118,4)" height="40px" width="40px" x="480px" y="480px" /><rect fill="rgb(105,200,0)" height="40px" width="40px" x="520px" y="480px" /><rect fill="rgb(138,251,13)" height="40px" width="40px" x="560px" y="480px" /><rect fill="rgb(138,251,13)" height="40px" width="40px" x="600px" y="480px" /><rect fill="rgb(138,251,13)" height="40px" width="40px" x="640px" y="480px" /><rect fill="rgb(138,251,13)" height="40px" width="40px" x="680px" y="480px" /><rect fill="rgb(138,251,13)" height="40px" width="40px" x="720px" y="480px" /><rect fill="rgb(138,251,13)" height="40px" width="40px" x="760px" y="480px" /><rect fill="rgb(16,16,16)" height="40px" width="40px" x="800px" y="480px" /><rect fill="rgb(16,16,16)" height="40px" width="40px" x="440px" y="520px" /><rect fill="rgb(64,118,4)" height="40px" width="40px" x="480px" y="520px" /><rect fill="rgb(105,200,0)" height="40px" width="40px" x="520px" y="520px" /><rect fill="rgb(138,251,13)" height="40px" width="40px" x="560px" y="520px" /><rect fill="rgb(138,251,13)" height="40px" width="40px" x="600px" y="520px" /><rect fill="rgb(138,251,13)" height="40px" width="40px" x="640px" y="520px" /><rect fill="rgb(138,251,13)" height="40px" width="40px" x="680px" y="520px" /><rect fill="rgb(138,251,13)" height="40px" width="40px" x="720px" y="520px" /><rect fill="rgb(138,251,13)" height="40px" width="40px" x="760px" y="520px" /><rect fill="rgb(16,16,16)" height="40px" width="40px" x="800px" y="520px" /><rect fill="rgb(16,16,16)" height="40px" width="40px" x="480px" y="560px" /><rect fill="rgb(64,118,4)" height="40px" width="40px" x="520px" y="560px" /><rect fill="rgb(105,200,0)" height="40px" width="40px" x="560px" y="560px" /><rect fill="rgb(138,251,13)" height="40px" width="40px" x="600px" y="560px" /><rect fill="rgb(138,251,13)" height="40px" width="40px" x="640px" y="560px" /><rect fill="rgb(138,251,13)" height="40px" width="40px" x="680px" y="560px" /><rect fill="rgb(138,251,13)" height="40px" width="40px" x="720px" y="560px" /><rect fill="rgb(16,16,16)" height="40px" width="40px" x="760px" y="560px" /><rect fill="rgb(16,16,16)" height="40px" width="40px" x="440px" y="600px" /><rect fill="rgb(16,16,16)" height="40px" width="40px" x="480px" y="600px" /><rect fill="rgb(64,118,4)" height="40px" width="40px" x="520px" y="600px" /><rect fill="rgb(64,118,4)" height="40px" width="40px" x="560px" y="600px" /><rect fill="rgb(105,200,0)" height="40px" width="40px" x="600px" y="600px" /><rect fill="rgb(138,251,13)" height="40px" width="40px" x="640px" y="600px" /><rect fill="rgb(138,251,13)" height="40px" width="40px" x="680px" y="600px" /><rect fill="rgb(138,251,13)" height="40px" width="40px" x="720px" y="600px" /><rect fill="rgb(16,16,16)" height="40px" width="40px" x="760px" y="600px" /><rect fill="rgb(16,16,16)" height="40px" width="40px" x="800px" y="600px" /><rect fill="rgb(16,16,16)" height="40px" width="40px" x="440px" y="640px" /><rect fill="rgb(105,200,0)" height="40px" width="40px" x="480px" y="640px" /><rect fill="rgb(16,16,16)" height="40px" width="40px" x="520px" y="640px" /><rect fill="rgb(64,118,4)" height="40px" width="40px" x="560px" y="640px" /><rect fill="rgb(105,200,0)" height="40px" width="40px" x="600px" y="640px" /><rect fill="rgb(105,200,0)" height="40px" width="40px" x="640px" y="640px" /><rect fill="rgb(138,251,13)" height="40px" width="40px" x="680px" y="640px" /><rect fill="rgb(16,16,16)" height="40px" width="40px" x="720px" y="640px" /><rect fill="rgb(138,251,13)" height="40px" width="40px" x="760px" y="640px" /><rect fill="rgb(16,16,16)" height="40px" width="40px" x="800px" y="640px" /><rect fill="rgb(16,16,16)" height="40px" width="40px" x="360px" y="680px" /><rect fill="rgb(16,16,16)" height="40px" width="40px" x="400px" y="680px" /><rect fill="rgb(105,200,0)" height="40px" width="40px" x="440px" y="680px" /><rect fill="rgb(105,200,0)" height="40px" width="40px" x="480px" y="680px" /><rect fill="rgb(16,16,16)" height="40px" width="40px" x="520px" y="680px" /><rect fill="rgb(64,118,4)" height="40px" width="40px" x="560px" y="680px" /><rect fill="rgb(16,16,16)" height="40px" width="40px" x="600px" y="680px" /><rect fill="rgb(16,16,16)" height="40px" width="40px" x="640px" y="680px" /><rect fill="rgb(105,200,0)" height="40px" width="40px" x="680px" y="680px" /><rect fill="rgb(16,16,16)" height="40px" width="40px" x="720px" y="680px" /><rect fill="rgb(138,251,13)" height="40px" width="40px" x="760px" y="680px" /><rect fill="rgb(138,251,13)" height="40px" width="40px" x="800px" y="680px" /><rect fill="rgb(16,16,16)" height="40px" width="40px" x="840px" y="680px" /><rect fill="rgb(16,16,16)" height="40px" width="40px" x="880px" y="680px" /><rect fill="rgb(16,16,16)" height="40px" width="40px" x="320px" y="720px" /><rect fill="rgb(105,200,0)" height="40px" width="40px" x="360px" y="720px" /><rect fill="rgb(105,200,0)" height="40px" width="40px" x="400px" y="720px" /><rect fill="rgb(105,200,0)" height="40px" width="40px" x="440px" y="720px" /><rect fill="rgb(105,200,0)" height="40px" width="40px" x="480px" y="720px" /><rect fill="rgb(105,200,0)" height="40px" width="40px" x="520px" y="720px" /><rect fill="rgb(16,16,16)" height="40px" width="40px" x="560px" y="720px" /><rect fill="rgb(255,255,255)" height="40px" width="40px" x="600px" y="720px" /><rect fill="rgb(255,255,255)" height="40px" width="40px" x="640px" y="720px" /><rect fill="rgb(16,16,16)" height="40px" width="40px" x="680px" y="720px" /><rect fill="rgb(105,200,0)" height="40px" width="40px" x="720px" y="720px" /><rect fill="rgb(105,200,0)" height="40px" width="40px" x="760px" y="720px" /><rect fill="rgb(138,251,13)" height="40px" width="40px" x="800px" y="720px" /><rect fill="rgb(138,251,13)" height="40px" width="40px" x="840px" y="720px" /><rect fill="rgb(138,251,13)" height="40px" width="40px" x="880px" y="720px" /><rect fill="rgb(16,16,16)" height="40px" width="40px" x="920px" y="720px" /><rect fill="rgb(16,16,16)" height="40px" width="40px" x="320px" y="760px" /><rect fill="rgb(105,200,0)" height="40px" width="40px" x="360px" y="760px" /><rect fill="rgb(64,118,4)" height="40px" width="40px" x="400px" y="760px" /><rect fill="rgb(16,16,16)" height="40px" width="40px" x="440px" y="760px" /><rect fill="rgb(105,200,0)" height="40px" width="40px" x="480px" y="760px" /><rect fill="rgb(105,200,0)" height="40px" width="40px" x="520px" y="760px" /><rect fill="rgb(16,16,16)" height="40px" width="40px" x="560px" y="760px" /><rect fill="rgb(235,235,235)" height="40px" width="40px" x="600px" y="760px" /><rect fill="rgb(255,255,255)" height="40px" width="40px" x="640px" y="760px" /><rect fill="rgb(16,16,16)" height="40px" width="40px" x="680px" y="760px" /><rect fill="rgb(105,200,0)" height="40px" width="40px" x="720px" y="760px" /><rect fill="rgb(105,200,0)" height="40px" width="40px" x="760px" y="760px" /><rect fill="rgb(16,16,16)" height="40px" width="40px" x="800px" y="760px" /><rect fill="rgb(105,200,0)" height="40px" width="40px" x="840px" y="760px" /><rect fill="rgb(138,251,13)" height="40px" width="40px" x="880px" y="760px" /><rect fill="rgb(16,16,16)" height="40px" width="40px" x="920px" y="760px" /><rect fill="rgb(16,16,16)" height="40px" width="40px" x="320px" y="800px" /><rect fill="rgb(105,200,0)" height="40px" width="40px" x="360px" y="800px" /><rect fill="rgb(64,118,4)" height="40px" width="40px" x="400px" y="800px" /><rect fill="rgb(16,16,16)" height="40px" width="40px" x="440px" y="800px" /><rect fill="rgb(105,200,0)" height="40px" width="40px" x="480px" y="800px" /><rect fill="rgb(105,200,0)" height="40px" width="40px" x="520px" y="800px" /><rect fill="rgb(105,200,0)" height="40px" width="40px" x="560px" y="800px" /><rect fill="rgb(16,16,16)" height="40px" width="40px" x="600px" y="800px" /><rect fill="rgb(16,16,16)" height="40px" width="40px" x="640px" y="800px" /><rect fill="rgb(105,200,0)" height="40px" width="40px" x="680px" y="800px" /><rect fill="rgb(105,200,0)" height="40px" width="40px" x="720px" y="800px" /><rect fill="rgb(138,251,13)" height="40px" width="40px" x="760px" y="800px" /><rect fill="rgb(16,16,16)" height="40px" width="40px" x="800px" y="800px" /><rect fill="rgb(105,200,0)" height="40px" width="40px" x="840px" y="800px" /><rect fill="rgb(138,251,13)" height="40px" width="40px" x="880px" y="800px" /><rect fill="rgb(16,16,16)" height="40px" width="40px" x="920px" y="800px" /><rect fill="rgb(16,16,16)" height="40px" width="40px" x="320px" y="840px" /><rect fill="rgb(105,200,0)" height="40px" width="40px" x="360px" y="840px" /><rect fill="rgb(64,118,4)" height="40px" width="40px" x="400px" y="840px" /><rect fill="rgb(16,16,16)" height="40px" width="40px" x="440px" y="840px" /><rect fill="rgb(64,118,4)" height="40px" width="40px" x="480px" y="840px" /><rect fill="rgb(105,200,0)" height="40px" width="40px" x="520px" y="840px" /><rect fill="rgb(105,200,0)" height="40px" width="40px" x="560px" y="840px" /><rect fill="rgb(105,200,0)" height="40px" width="40px" x="600px" y="840px" /><rect fill="rgb(105,200,0)" height="40px" width="40px" x="640px" y="840px" /><rect fill="rgb(105,200,0)" height="40px" width="40px" x="680px" y="840px" /><rect fill="rgb(105,200,0)" height="40px" width="40px" x="720px" y="840px" /><rect fill="rgb(138,251,13)" height="40px" width="40px" x="760px" y="840px" /><rect fill="rgb(16,16,16)" height="40px" width="40px" x="800px" y="840px" /><rect fill="rgb(105,200,0)" height="40px" width="40px" x="840px" y="840px" /><rect fill="rgb(138,251,13)" height="40px" width="40px" x="880px" y="840px" /><rect fill="rgb(16,16,16)" height="40px" width="40px" x="920px" y="840px" /><rect fill="rgb(16,16,16)" height="40px" width="40px" x="360px" y="880px" /><rect fill="rgb(64,118,4)" height="40px" width="40px" x="400px" y="880px" /><rect fill="rgb(16,16,16)" height="40px" width="40px" x="440px" y="880px" /><rect fill="rgb(64,118,4)" height="40px" width="40px" x="480px" y="880px" /><rect fill="rgb(64,118,4)" height="40px" width="40px" x="520px" y="880px" /><rect fill="rgb(105,200,0)" height="40px" width="40px" x="560px" y="880px" /><rect fill="rgb(105,200,0)" height="40px" width="40px" x="600px" y="880px" /><rect fill="rgb(105,200,0)" height="40px" width="40px" x="640px" y="880px" /><rect fill="rgb(105,200,0)" height="40px" width="40px" x="680px" y="880px" /><rect fill="rgb(105,200,0)" height="40px" width="40px" x="720px" y="880px" /><rect fill="rgb(138,251,13)" height="40px" width="40px" x="760px" y="880px" /><rect fill="rgb(16,16,16)" height="40px" width="40px" x="800px" y="880px" /><rect fill="rgb(105,200,0)" height="40px" width="40px" x="840px" y="880px" /><rect fill="rgb(138,251,13)" height="40px" width="40px" x="880px" y="880px" /><rect fill="rgb(16,16,16)" height="40px" width="40px" x="920px" y="880px" /><rect fill="rgb(16,16,16)" height="40px" width="40px" x="320px" y="920px" /><rect fill="rgb(151,95,37)" height="40px" width="40px" x="360px" y="920px" /><rect fill="rgb(16,16,16)" height="40px" width="40px" x="400px" y="920px" /><rect fill="rgb(16,16,16)" height="40px" width="40px" x="480px" y="920px" /><rect fill="rgb(64,118,4)" height="40px" width="40px" x="520px" y="920px" /><rect fill="rgb(105,200,0)" height="40px" width="40px" x="560px" y="920px" /><rect fill="rgb(105,200,0)" height="40px" width="40px" x="600px" y="920px" /><rect fill="rgb(105,200,0)" height="40px" width="40px" x="640px" y="920px" /><rect fill="rgb(105,200,0)" height="40px" width="40px" x="680px" y="920px" /><rect fill="rgb(105,200,0)" height="40px" width="40px" x="720px" y="920px" /><rect fill="rgb(16,16,16)" height="40px" width="40px" x="760px" y="920px" /><rect fill="rgb(105,200,0)" height="40px" width="40px" x="840px" y="920px" /><rect fill="rgb(105,200,0)" height="40px" width="40px" x="880px" y="920px" /><rect fill="rgb(16,16,16)" height="40px" width="40px" x="920px" y="920px" /><rect fill="rgb(16,16,16)" height="40px" width="40px" x="280px" y="960px" /><rect fill="rgb(151,95,37)" height="40px" width="40px" x="320px" y="960px" /><rect fill="rgb(187,127,66)" height="40px" width="40px" x="360px" y="960px" /><rect fill="rgb(187,127,66)" height="40px" width="40px" x="400px" y="960px" /><rect fill="rgb(16,16,16)" height="40px" width="40px" x="440px" y="960px" /><rect fill="rgb(235,235,235)" height="40px" width="40px" x="480px" y="960px" /><rect fill="rgb(235,235,235)" height="40px" width="40px" x="520px" y="960px" /><rect fill="rgb(255,255,255)" height="40px" width="40px" x="560px" y="960px" /><rect fill="rgb(255,255,255)" height="40px" width="40px" x="600px" y="960px" /><rect fill="rgb(255,255,255)" height="40px" width="40px" x="640px" y="960px" /><rect fill="rgb(255,255,255)" height="40px" width="40px" x="680px" y="960px" /><rect fill="rgb(255,255,255)" height="40px" width="40px" x="720px" y="960px" /><rect fill="rgb(255,255,255)" height="40px" width="40px" x="760px" y="960px" /><rect fill="rgb(16,16,16)" height="40px" width="40px" x="800px" y="960px" /><rect fill="rgb(105,200,0)" height="40px" width="40px" x="840px" y="960px" /><rect fill="rgb(105,200,0)" height="40px" width="40px" x="880px" y="960px" /><rect fill="rgb(16,16,16)" height="40px" width="40px" x="920px" y="960px" /><rect fill="rgb(16,16,16)" height="40px" width="40px" x="240px" y="1000px" /><rect fill="rgb(151,95,37)" height="40px" width="40px" x="280px" y="1000px" /><rect fill="rgb(151,95,37)" height="40px" width="40px" x="320px" y="1000px" /><rect fill="rgb(187,127,66)" height="40px" width="40px" x="360px" y="1000px" /><rect fill="rgb(187,127,66)" height="40px" width="40px" x="400px" y="1000px" /><rect fill="rgb(16,16,16)" height="40px" width="40px" x="440px" y="1000px" /><rect fill="rgb(64,118,4)" height="40px" width="40px" x="480px" y="1000px" /><rect fill="rgb(64,118,4)" height="40px" width="40px" x="520px" y="1000px" /><rect fill="rgb(105,200,0)" height="40px" width="40px" x="560px" y="1000px" /><rect fill="rgb(105,200,0)" height="40px" width="40px" x="600px" y="1000px" /><rect fill="rgb(138,251,13)" height="40px" width="40px" x="640px" y="1000px" /><rect fill="rgb(138,251,13)" height="40px" width="40px" x="680px" y="1000px" /><rect fill="rgb(138,251,13)" height="40px" width="40px" x="720px" y="1000px" /><rect fill="rgb(138,251,13)" height="40px" width="40px" x="760px" y="1000px" /><rect fill="rgb(16,16,16)" height="40px" width="40px" x="800px" y="1000px" /><rect fill="rgb(238,195,154)" height="40px" width="40px" x="840px" y="1000px" /><rect fill="rgb(16,16,16)" height="40px" width="40px" x="880px" y="1000px" /><rect fill="rgb(16,16,16)" height="40px" width="40px" x="200px" y="1040px" /><rect fill="rgb(151,95,37)" height="40px" width="40px" x="240px" y="1040px" /><rect fill="rgb(151,95,37)" height="40px" width="40px" x="280px" y="1040px" /><rect fill="rgb(187,127,66)" height="40px" width="40px" x="320px" y="1040px" /><rect fill="rgb(217,160,102)" height="40px" width="40px" x="360px" y="1040px" /><rect fill="rgb(217,160,102)" height="40px" width="40px" x="400px" y="1040px" /><rect fill="rgb(16,16,16)" height="40px" width="40px" x="440px" y="1040px" /><rect fill="rgb(64,118,4)" height="40px" width="40px" x="480px" y="1040px" /><rect fill="rgb(105,200,0)" height="40px" width="40px" x="520px" y="1040px" /><rect fill="rgb(105,200,0)" height="40px" width="40px" x="560px" y="1040px" /><rect fill="rgb(16,16,16)" height="40px" width="40px" x="600px" y="1040px" /><rect fill="rgb(16,16,16)" height="40px" width="40px" x="640px" y="1040px" /><rect fill="rgb(105,200,0)" height="40px" width="40px" x="680px" y="1040px" /><rect fill="rgb(105,200,0)" height="40px" width="40px" x="720px" y="1040px" /><rect fill="rgb(138,251,13)" height="40px" width="40px" x="760px" y="1040px" /><rect fill="rgb(16,16,16)" height="40px" width="40px" x="800px" y="1040px" /><rect fill="rgb(16,16,16)" height="40px" width="40px" x="840px" y="1040px" /><rect fill="rgb(16,16,16)" height="40px" width="40px" x="200px" y="1080px" /><rect fill="rgb(151,95,37)" height="40px" width="40px" x="240px" y="1080px" /><rect fill="rgb(151,95,37)" height="40px" width="40px" x="280px" y="1080px" /><rect fill="rgb(187,127,66)" height="40px" width="40px" x="320px" y="1080px" /><rect fill="rgb(217,160,102)" height="40px" width="40px" x="360px" y="1080px" /><rect fill="rgb(217,160,102)" height="40px" width="40px" x="400px" y="1080px" /><rect fill="rgb(16,16,16)" height="40px" width="40px" x="440px" y="1080px" /><rect fill="rgb(235,235,235)" height="40px" width="40px" x="480px" y="1080px" /><rect fill="rgb(235,235,235)" height="40px" width="40px" x="520px" y="1080px" /><rect fill="rgb(255,255,255)" height="40px" width="40px" x="560px" y="1080px" /><rect fill="rgb(16,16,16)" height="40px" width="40px" x="600px" y="1080px" /><rect fill="rgb(16,16,16)" height="40px" width="40px" x="640px" y="1080px" /><rect fill="rgb(235,235,235)" height="40px" width="40px" x="680px" y="1080px" /><rect fill="rgb(255,255,255)" height="40px" width="40px" x="720px" y="1080px" /><rect fill="rgb(255,255,255)" height="40px" width="40px" x="760px" y="1080px" /><rect fill="rgb(16,16,16)" height="40px" width="40px" x="800px" y="1080px" /><rect fill="rgb(16,16,16)" height="40px" width="40px" x="200px" y="1120px" /><rect fill="rgb(151,95,37)" height="40px" width="40px" x="240px" y="1120px" /><rect fill="rgb(151,95,37)" height="40px" width="40px" x="280px" y="1120px" /><rect fill="rgb(187,127,66)" height="40px" width="40px" x="320px" y="1120px" /><rect fill="rgb(187,127,66)" height="40px" width="40px" x="360px" y="1120px" /><rect fill="rgb(217,160,102)" height="40px" width="40px" x="400px" y="1120px" /><rect fill="rgb(16,16,16)" height="40px" width="40px" x="440px" y="1120px" /><rect fill="rgb(235,235,235)" height="40px" width="40px" x="480px" y="1120px" /><rect fill="rgb(235,235,235)" height="40px" width="40px" x="520px" y="1120px" /><rect fill="rgb(255,255,255)" height="40px" width="40px" x="560px" y="1120px" /><rect fill="rgb(16,16,16)" height="40px" width="40px" x="600px" y="1120px" /><rect fill="rgb(16,16,16)" height="40px" width="40px" x="640px" y="1120px" /><rect fill="rgb(235,235,235)" height="40px" width="40px" x="680px" y="1120px" /><rect fill="rgb(255,255,255)" height="40px" width="40px" x="720px" y="1120px" /><rect fill="rgb(255,255,255)" height="40px" width="40px" x="760px" y="1120px" /><rect fill="rgb(16,16,16)" height="40px" width="40px" x="800px" y="1120px" /><rect fill="rgb(16,16,16)" height="40px" width="40px" x="200px" y="1160px" /><rect fill="rgb(151,95,37)" height="40px" width="40px" x="240px" y="1160px" /><rect fill="rgb(151,95,37)" height="40px" width="40px" x="280px" y="1160px" /><rect fill="rgb(151,95,37)" height="40px" width="40px" x="320px" y="1160px" /><rect fill="rgb(187,127,66)" height="40px" width="40px" x="360px" y="1160px" /><rect fill="rgb(187,127,66)" height="40px" width="40px" x="400px" y="1160px" /><rect fill="rgb(16,16,16)" height="40px" width="40px" x="440px" y="1160px" /><rect fill="rgb(100,25,16)" height="40px" width="40px" x="480px" y="1160px" /><rect fill="rgb(100,25,16)" height="40px" width="40px" x="520px" y="1160px" /><rect fill="rgb(100,25,16)" height="40px" width="40px" x="560px" y="1160px" /><rect fill="rgb(16,16,16)" height="40px" width="40px" x="600px" y="1160px" /><rect fill="rgb(16,16,16)" height="40px" width="40px" x="640px" y="1160px" /><rect fill="rgb(100,25,16)" height="40px" width="40px" x="680px" y="1160px" /><rect fill="rgb(100,25,16)" height="40px" width="40px" x="720px" y="1160px" /><rect fill="rgb(100,25,16)" height="40px" width="40px" x="760px" y="1160px" /><rect fill="rgb(16,16,16)" height="40px" width="40px" x="800px" y="1160px" /><rect fill="rgb(16,16,16)" height="40px" width="40px" x="240px" y="1200px" /><rect fill="rgb(151,95,37)" height="40px" width="40px" x="280px" y="1200px" /><rect fill="rgb(151,95,37)" height="40px" width="40px" x="320px" y="1200px" /><rect fill="rgb(151,95,37)" height="40px" width="40px" x="360px" y="1200px" /><rect fill="rgb(187,127,66)" height="40px" width="40px" x="400px" y="1200px" /><rect fill="rgb(16,16,16)" height="40px" width="40px" x="440px" y="1200px" /><rect fill="rgb(100,25,16)" height="40px" width="40px" x="480px" y="1200px" /><rect fill="rgb(100,25,16)" height="40px" width="40px" x="520px" y="1200px" /><rect fill="rgb(100,25,16)" height="40px" width="40px" x="560px" y="1200px" /><rect fill="rgb(16,16,16)" height="40px" width="40px" x="600px" y="1200px" /><rect fill="rgb(16,16,16)" height="40px" width="40px" x="640px" y="1200px" /><rect fill="rgb(100,25,16)" height="40px" width="40px" x="680px" y="1200px" /><rect fill="rgb(100,25,16)" height="40px" width="40px" x="720px" y="1200px" /><rect fill="rgb(100,25,16)" height="40px" width="40px" x="760px" y="1200px" /><rect fill="rgb(16,16,16)" height="40px" width="40px" x="800px" y="1200px" /><rect fill="rgb(16,16,16)" height="40px" width="40px" x="280px" y="1240px" /><rect fill="rgb(16,16,16)" height="40px" width="40px" x="320px" y="1240px" /><rect fill="rgb(16,16,16)" height="40px" width="40px" x="360px" y="1240px" /><rect fill="rgb(16,16,16)" height="40px" width="40px" x="400px" y="1240px" /><rect fill="rgb(16,16,16)" height="40px" width="40px" x="440px" y="1240px" /><rect fill="rgb(16,16,16)" height="40px" width="40px" x="480px" y="1240px" /><rect fill="rgb(16,16,16)" height="40px" width="40px" x="520px" y="1240px" /><rect fill="rgb(16,16,16)" height="40px" width="40px" x="560px" y="1240px" /><rect fill="rgb(16,16,16)" height="40px" width="40px" x="680px" y="1240px" /><rect fill="rgb(16,16,16)" height="40px" width="40px" x="720px" y="1240px" /><rect fill="rgb(16,16,16)" height="40px" width="40px" x="760px" y="1240px" /></svg>