<?xml version="1.0" encoding="utf-8" ?>
<svg baseProfile="full" height="2000px" version="1.1" width="2000px" xmlns="http://www.w3.org/2000/svg" xmlns:ev="http://www.w3.org/2001/xml-events" xmlns:xlink="http://www.w3.org/1999/xlink"><defs /><rect fill="rgb(0,0,0)" height="40px" width="40px" x="1040px" y="160px" /><rect fill="rgb(0,0,0)" height="40px" width="40px" x="1080px" y="160px" /><rect fill="rgb(0,0,0)" height="40px" width="40px" x="1120px" y="160px" /><rect fill="rgb(0,0,0)" height="40px" width="40px" x="1160px" y="160px" /><rect fill="rgb(0,0,0)" height="40px" width="40px" x="1200px" y="160px" /><rect fill="rgb(0,0,0)" height="40px" width="40px" x="1240px" y="160px" /><rect fill="rgb(0,0,0)" height="40px" width="40px" x="1280px" y="160px" /><rect fill="rgb(0,0,0)" height="40px" width="40px" x="1320px" y="160px" /><rect fill="rgb(0,0,0)" height="40px" width="40px" x="1000px" y="200px" /><rect fill="rgb(16,16,16)" height="40px" width="40px" x="1040px" y="200px" /><rect fill="rgb(16,16,16)" height="40px" width="40px" x="1080px" y="200px" /><rect fill="rgb(16,16,16)" height="40px" width="40px" x="1120px" y="200px" /><rect fill="rgb(16,16,16)" height="40px" width="40px" x="1160px" y="200px" /><rect fill="rgb(16,16,16)" height="40px" width="40px" x="1200px" y="200px" /><rect fill="rgb(16,16,16)" height="40px" width="40px" x="1240px" y="200px" /><rect fill="rgb(16,16,16)" height="40px" width="40px" x="1280px" y="200px" /><rect fill="rgb(0,0,0)" height="40px" width="40px" x="1320px" y="200px" /><rect fill="rgb(0,0,0)" height="40px" width="40px" x="1000px" y="240px" /><rect fill="rgb(16,16,16)" height="40px" width="40px" x="1040px" y="240px" /><rect fill="rgb(255,208,162)" height="40px" width="40px" x="1080px" y="240px" /><rect fill="rgb(255,208,162)" height="40px" width="40px" x="1120px" y="240px" /><rect fill="rgb(255,208,162)" height="40px" width="40px" x="1160px" y="240px" /><rect fill="rgb(255,208,162)" height="40px" width="40px" x="1200px" y="240px" /><rect fill="rgb(255,208,162)" height="40px" width="40px" x="1240px" y="240px" /><rect fill="rgb(255,208,162)" height="40px" width="40px" x="1280px" y="240px" /><rect fill="rgb(16,16,16)" height="40px" width="40px" x="1320px" y="240px" /><rect fill="rgb(0,0,0)" height="40px" width="40px" x="1360px" y="240px" /><rect fill="rgb(0,0,0)" height="40px" width="40px" x="1000px" y="280px" /><rect fill="rgb(16,16,16)" height="40px" width="40px" x="1040px" y="280px" /><rect fill="rgb(255,208,162)" height="40px" width="40px" x="1080px" y="280px" /><rect fill="rgb(255,208,162)" height="40px" width="40px" x="1120px" y="280px" /><rect fill="rgb(255,208,162)" height="40px" width="40px" x="1160px" y="280px" /><rect fill="rgb(255,208,162)" height="40px" width="40px" x="1200px" y="280px" /><rect fill="rgb(255,208,162)" height="40px" width="40px" x="1240px" y="280px" /><rect fill="rgb(255,208,162)" height="40px" width="40px" x="1280px" y="280px" /><rect fill="rgb(16,16,16)" height="40px" width="40px" x="1320px" y="280px" /><rect fill="rgb(0,0,0)" height="40px" width="40px" x="1360px" y="280px" /><rect fill="rgb(0,0,0)" height="40px" width="40px" x="960px" y="320px" /><rect fill="rgb(16,16,16)" height="40px" width="40px" x="1000px" y="320px" /><rect fill="rgb(0,0,0)" height="40px" width="40px" x="1040px" y="320px" /><rect fill="rgb(255,208,162)" height="40px" width="40px" x="1080px" y="320px" /><rect fill="rgb(0,0,0)" height="40px" width="40px" x="1120px" y="320px" /><rect fill="rgb(255,255,255)" height="40px" width="40px" x="1160px" y="320px" /><rect fill="rgb(238,195,154)" height="40px" width="40px" x="1200px" y="320px" /><rect fill="rgb(0,0,0)" height="40px" width="40px" x="1240px" y="320px" /><rect fill="rgb(255,255,255)" height="40px" width="40px" x="1280px" y="320px" /><rect fill="rgb(16,16,16)" height="40px" width="40px" x="1320px" y="320px" /><rect fill="rgb(0,0,0)" height="40px" width="40px" x="1360px" y="320px" /><rect fill="rgb(0,0,0)" height="40px" width="40px" x="1000px" y="360px" /><rect fill="rgb(0,0,0)" height="40px" width="40px" x="1040px" y="360px" /><rect fill="rgb(255,208,162)" height="40px" width="40px" x="1080px" y="360px" /><rect fill="rgb(0,0,0)" height="40px" width="40px" x="1120px" y="360px" /><rect fill="rgb(255,255,255)" height="40px" width="40px" x="1160px" y="360px" /><rect fill="rgb(238,195,154)" height="40px" width="40px" x="1200px" y="360px" /><rect fill="rgb(0,0,0)" height="40px" width="40px" x="1240px" y="360px" /><rect fill="rgb(255,255,255)" height="40px" width="40px" x="1280px" y="360px" /><rect fill="rgb(16,16,16)" height="40px" width="40px" x="1320px" y="360px" /><rect fill="rgb(0,0,0)" height="40px" width="40px" x="1360px" y="360px" /><rect fill="rgb(0,0,0)" height="40px" width="40px" x="1040px" y="400px" /><rect fill="rgb(255,208,162)" height="40px" width="40px" x="1080px" y="400px" /><rect fill="rgb(255,208,162)" height="40px" width="40px" x="1120px" y="400px" /><rect fill="rgb(255,208,162)" height="40px" width="40px" x="1160px" y="400px" /><rect fill="rgb(255,208,162)" height="40px" width="40px" x="1200px" y="400px" /><rect fill="rgb(255,208,162)" height="40px" width="40px" x="1240px" y="400px" /><rect fill="rgb(255,208,162)" height="40px" width="40px" x="1280px" y="400px" /><rect fill="rgb(16,16,16)" height="40px" width="40px" x="1320px" y="400px" /><rect fill="rgb(0,0,0)" height="40px" width="40px" x="1360px" y="400px" /><rect fill="rgb(0,0,0)" height="40px" width="40px" x="1040px" y="440px" /><rect fill="rgb(255,208,162)" height="40px" width="40px" x="1080px" y="440px" /><rect fill="rgb(255,208,162)" height="40px" width="40px" x="1120px" y="440px" /><rect fill="rgb(255,255,255)" height="40px" width="40px" x="1160px" y="440px" /><rect fill="rgb(255,255,255)" height="40px" width="40px" x="1200px" y="440px" /><rect fill="rgb(255,208,162)" height="40px" width="40px" x="1240px" y="440px" /><rect fill="rgb(255,208,162)" height="40px" width="40px" x="1280px" y="440px" /><rect fill="rgb(16,16,16)" height="40px" width="40px" x="1320px" y="440px" /><rect fill="rgb(0,0,0)" height="40px" width="40px" x="1360px" y="440px" /><rect fill="rgb(0,0,0)" height="40px" width="40px" x="1040px" y="480px" /><rect fill="rgb(255,208,162)" height="40px" width="40px" x="1080px" y="480px" /><rect fill="rgb(255,208,162)" height="40px" width="40px" x="1120px" y="480px" /><rect fill="rgb(0,0,0)" height="40px" width="40px" x="1160px" y="480px" /><rect fill="rgb(0,0,0)" height="40px" width="40px" x="1200px" y="480px" /><rect fill="rgb(255,208,162)" height="40px" width="40px" x="1240px" y="480px" /><rect fill="rgb(16,16,16)" height="40px" width="40px" x="1280px" y="480px" /><rect fill="rgb(0,0,0)" height="40px" width="40px" x="1320px" y="480px" /><rect fill="rgb(0,0,0)" height="40px" width="40px" x="1080px" y="520px" /><rect fill="rgb(255,207,162)" height="40px" width="40px" x="1120px" y="520px" /><rect fill="rgb(255,255,255)" height="40px" width="40px" x="1160px" y="520px" /><rect fill="rgb(255,255,255)" height="40px" width="40px" x="1200px" y="520px" /><rect fill="rgb(255,208,162)" height="40px" width="40px" x="1240px" y="520px" /><rect fill="rgb(0,0,0)" height="40px" width="40px" x="1280px" y="520px" /><rect fill="rgb(0,0,0)" height="40px" width="40px" x="1000px" y="560px" /><rect fill="rgb(0,0,0)" height="40px" width="40px" x="1040px" y="560px" /><rect fill="rgb(0,0,0)" height="40px" width="40px" x="1080px" y="560px" /><rect fill="rgb(255,208,162)" height="40px" width="40px" x="1120px" y="560px" /><rect fill="rgb(255,208,162)" height="40px" width="40px" x="1160px" y="560px" /><rect fill="rgb(255,208,162)" height="40px" width="40px" x="1200px" y="560px" /><rect fill="rgb(255,208,162)" height="40px" width="40px" x="1240px" y="560px" /><rect fill="rgb(0,0,0)" height="40px" width="40px" x="1280px" y="560px" /><rect fill="rgb(0,0,0)" height="40px" width="40px" x="1320px" y="560px" /><rect fill="rgb(0,0,0)" height="40px" width="40px" x="1360px" y="560px" /><rect fill="rgb(0,0,0)" height="40px" width="40px" x="360px" y="600px" /><rect fill="rgb(0,0,0)" height="40px" width="40px" x="400px" y="600px" /><rect fill="rgb(0,0,0)" height="40px" width="40px" x="440px" y="600px" /><rect fill="rgb(0,0,0)" height="40px" width="40px" x="480px" y="600px" /><rect fill="rgb(0,0,0)" height="40px" width="40px" x="520px" y="600px" /><rect fill="rgb(0,0,0)" height="40px" width="40px" x="560px" y="600px" /><rect fill="rgb(0,0,0)" height="40px" width="40px" x="600px" y="600px" /><rect fill="rgb(0,0,0)" height="40px" width="40px" x="640px" y="600px" /><rect fill="rgb(0,0,0)" height="40px" width="40px" x="680px" y="600px" /><rect fill="rgb(0,0,0)" height="40px" width="40px" x="720px" y="600px" /><rect fill="rgb(0,0,0)" height="40px" width="40px" x="760px" y="600px" /><rect fill="rgb(0,0,0)" height="40px" width="40px" x="800px" y="600px" /><rect fill="rgb(0,0,0)" height="40px" width="40px" x="840px" y="600px" /><rect fill="rgb(0,0,0)" height="40px" width="40px" x="880px" y="600px" /><rect fill="rgb(0,0,0)" height="40px" width="40px" x="920px" y="600px" /><rect fill="rgb(0,0,0)" height="40px" width="40px" x="960px" y="600px" /><rect fill="rgb(16,16,16)" height="40px" width="40px" x="1000px" y="600px" /><rect fill="rgb(16,16,16)" height="40px" width="40px" x="1040px" y="600px" /><rect fill="rgb(255,239,237)" height="40px" width="40px" x="1080px" y="600px" /><rect fill="rgb(255,255,255)" height="40px" width="40px" x="1120px" y="600px" /><rect fill="rgb(16,16,16)" height="40px" width="40px" x="1160px" y="600px" /><rect fill="rgb(16,16,16)" height="40px" width="40px" x="1200px" y="600px" /><rect fill="rgb(255,255,255)" height="40px" width="40px" x="1240px" y="600px" /><rect fill="rgb(255,255,255)" height="40px" width="40px" x="1280px" y="600px" /><rect fill="rgb(16,16,16)" height="40px" width="40px" x="1320px" y="600px" /><rect fill="rgb(16,16,16)" height="40px" width="40px" x="1360px" y="600px" /><rect fill="rgb(0,0,0)" height="40px" width="40px" x="1400px" y="600px" /><rect fill="rgb(0,0,0)" height="40px" width="40px" x="1440px" y="600px" /><rect fill="rgb(0,0,0)" height="40px" width="40px" x="320px" y="640px" /><rect fill="rgb(255,207,162)" height="40px" width="40px" x="360px" y="640px" /><rect fill="rgb(255,207,162)" height="40px" width="40px" x="400px" y="640px" /><rect fill="rgb(255,207,162)" height="40px" width="40px" x="440px" y="640px" /><rect fill="rgb(255,207,162)" height="40px" width="40px" x="480px" y="640px" /><rect fill="rgb(255,239,237)" height="40px" width="40px" x="520px" y="640px" /><rect fill="rgb(255,239,237)" height="40px" width="40px" x="560px" y="640px" /><rect fill="rgb(255,239,237)" height="40px" width="40px" x="600px" y="640px" /><rect fill="rgb(255,239,237)" height="40px" width="40px" x="640px" y="640px" /><rect fill="rgb(255,239,237)" height="40px" width="40px" x="680px" y="640px" /><rect fill="rgb(255,239,237)" height="40px" width="40px" x="720px" y="640px" /><rect fill="rgb(255,239,237)" height="40px" width="40px" x="760px" y="640px" /><rect fill="rgb(255,239,237)" height="40px" width="40px" x="800px" y="640px" /><rect fill="rgb(255,239,237)" height="40px" width="40px" x="840px" y="640px" /><rect fill="rgb(255,239,237)" height="40px" width="40px" x="880px" y="640px" /><rect fill="rgb(255,239,237)" height="40px" width="40px" x="920px" y="640px" /><rect fill="rgb(255,239,237)" height="40px" width="40px" x="960px" y="640px" /><rect fill="rgb(16,16,16)" height="40px" width="40px" x="1000px" y="640px" /><rect fill="rgb(16,16,16)" height="40px" width="40px" x="1040px" y="640px" /><rect fill="rgb(255,239,237)" height="40px" width="40px" x="1080px" y="640px" /><rect fill="rgb(255,255,255)" height="40px" width="40px" x="1120px" y="640px" /><rect fill="rgb(16,16,16)" height="40px" width="40px" x="1160px" y="640px" /><rect fill="rgb(16,16,16)" height="40px" width="40px" x="1200px" y="640px" /><rect fill="rgb(255,255,255)" height="40px" width="40px" x="1240px" y="640px" /><rect fill="rgb(255,255,255)" height="40px" width="40px" x="1280px" y="640px" /><rect fill="rgb(16,16,16)" height="40px" width="40px" x="1320px" y="640px" /><rect fill="rgb(16,16,16)" height="40px" width="40px" x="1360px" y="640px" /><rect fill="rgb(255,255,255)" height="40px" width="40px" x="1400px" y="640px" /><rect fill="rgb(255,255,255)" height="40px" width="40px" x="1440px" y="640px" /><rect fill="rgb(0,0,0)" height="40px" width="40px" x="1480px" y="640px" /><rect fill="rgb(0,0,0)" height="40px" width="40px" x="360px" y="680px" /><rect fill="rgb(0,0,0)" height="40px" width="40px" x="400px" y="680px" /><rect fill="rgb(255,207,162)" height="40px" width="40px" x="440px" y="680px" /><rect fill="rgb(255,207,162)" height="40px" width="40px" x="480px" y="680px" /><rect fill="rgb(255,239,237)" height="40px" width="40px" x="520px" y="680px" /><rect fill="rgb(255,239,237)" height="40px" width="40px" x="560px" y="680px" /><rect fill="rgb(255,239,237)" height="40px" width="40px" x="600px" y="680px" /><rect fill="rgb(255,239,237)" height="40px" width="40px" x="640px" y="680px" /><rect fill="rgb(255,239,237)" height="40px" width="40px" x="680px" y="680px" /><rect fill="rgb(255,239,237)" height="40px" width="40px" x="720px" y="680px" /><rect fill="rgb(255,239,237)" height="40px" width="40px" x="760px" y="680px" /><rect fill="rgb(255,239,237)" height="40px" width="40px" x="800px" y="680px" /><rect fill="rgb(255,239,237)" height="40px" width="40px" x="840px" y="680px" /><rect fill="rgb(255,239,237)" height="40px" width="40px" x="880px" y="680px" /><rect fill="rgb(255,239,237)" height="40px" width="40px" x="920px" y="680px" /><rect fill="rgb(255,239,237)" height="40px" width="40px" x="960px" y="680px" /><rect fill="rgb(16,16,16)" height="40px" width="40px" x="1000px" y="680px" /><rect fill="rgb(16,16,16)" height="40px" width="40px" x="1040px" y="680px" /><rect fill="rgb(16,16,16)" height="40px" width="40px" x="1080px" y="680px" /><rect fill="rgb(255,255,255)" height="40px" width="40px" x="1120px" y="680px" /><rect fill="rgb(16,16,16)" height="40px" width="40px" x="1160px" y="680px" /><rect fill="rgb(16,16,16)" height="40px" width="40px" x="1200px" y="680px" /><rect fill="rgb(255,255,255)" height="40px" width="40px" x="1240px" y="680px" /><rect fill="rgb(16,16,16)" height="40px" width="40px" x="1280px" y="680px" /><rect fill="rgb(16,16,16)" height="40px" width="40px" x="1320px" y="680px" /><rect fill="rgb(16,16,16)" height="40px" width="40px" x="1360px" y="680px" /><rect fill="rgb(255,255,255)" height="40px" width="40px" x="1400px" y="680px" /><rect fill="rgb(255,255,255)" height="40px" width="40px" x="1440px" y="680px" /><rect fill="rgb(0,0,0)" height="40px" width="40px" x="1480px" y="680px" /><rect fill="rgb(0,0,0)" height="40px" width="40px" x="440px" y="720px" /><rect fill="rgb(0,0,0)" height="40px" width="40px" x="480px" y="720px" /><rect fill="rgb(0,0,0)" height="40px" width="40px" x="520px" y="720px" /><rect fill="rgb(0,0,0)" height="40px" width="40px" x="560px" y="720px" /><rect fill="rgb(0,0,0)" height="40px" width="40px" x="600px" y="720px" /><rect fill="rgb(0,0,0)" height="40px" width="40px" x="640px" y="720px" /><rect fill="rgb(0,0,0)" height="40px" width="40px" x="680px" y="720px" /><rect fill="rgb(0,0,0)" height="40px" width="40px" x="720px" y="720px" /><rect fill="rgb(0,0,0)" height="40px" width="40px" x="760px" y="720px" /><rect fill="rgb(0,0,0)" height="40px" width="40px" x="800px" y="720px" /><rect fill="rgb(0,0,0)" height="40px" width="40px" x="840px" y="720px" /><rect fill="rgb(0,0,0)" height="40px" width="40px" x="880px" y="720px" /><rect fill="rgb(0,0,0)" height="40px" width="40px" x="920px" y="720px" /><rect fill="rgb(0,0,0)" height="40px" width="40px" x="960px" y="720px" /><rect fill="rgb(16,16,16)" height="40px" width="40px" x="1000px" y="720px" /><rect fill="rgb(16,16,16)" height="40px" width="40px" x="1040px" y="720px" /><rect fill="rgb(16,16,16)" height="40px" width="40px" x="1080px" y="720px" /><rect fill="rgb(255,255,255)" height="40px" width="40px" x="1120px" y="720px" /><rect fill="rgb(16,16,16)" height="40px" width="40px" x="1160px" y="720px" /><rect fill="rgb(16,16,16)" height="40px" width="40px" x="1200px" y="720px" /><rect fill="rgb(255,255,255)" height="40px" width="40px" x="1240px" y="720px" /><rect fill="rgb(16,16,16)" height="40px" width="40px" x="1280px" y="720px" /><rect fill="rgb(16,16,16)" height="40px" width="40px" x="1320px" y="720px" /><rect fill="rgb(16,16,16)" height="40px" width="40px" x="1360px" y="720px" /><rect fill="rgb(255,255,255)" height="40px" width="40px" x="1400px" y="720px" /><rect fill="rgb(255,255,255)" height="40px" width="40px" x="1440px" y="720px" /><rect fill="rgb(0,0,0)" height="40px" width="40px" x="1480px" y="720px" /><rect fill="rgb(0,0,0)" height="40px" width="40px" x="960px" y="760px" /><rect fill="rgb(16,16,16)" height="40px" width="40px" x="1000px" y="760px" /><rect fill="rgb(16,16,16)" height="40px" width="40px" x="1040px" y="760px" /><rect fill="rgb(16,16,16)" height="40px" width="40px" x="1080px" y="760px" /><rect fill="rgb(16,16,16)" height="40px" width="40px" x="1120px" y="760px" /><rect fill="rgb(16,16,16)" height="40px" width="40px" x="1160px" y="760px" /><rect fill="rgb(16,16,16)" height="40px" width="40px" x="1200px" y="760px" /><rect fill="rgb(16,16,16)" height="40px" width="40px" x="1240px" y="760px" /><rect fill="rgb(16,16,16)" height="40px" width="40px" x="1280px" y="760px" /><rect fill="rgb(16,16,16)" height="40px" width="40px" x="1320px" y="760px" /><rect fill="rgb(16,16,16)" height="40px" width="40px" x="1360px" y="760px" /><rect fill="rgb(255,255,255)" height="40px" width="40px" x="1400px" y="760px" /><rect fill="rgb(255,255,255)" height="40px" width="40px" x="1440px" y="760px" /><rect fill="rgb(0,0,0)" height="40px" width="40px" x="1480px" y="760px" /><rect fill="rgb(0,0,0)" height="40px" width="40px" x="960px" y="800px" /><rect fill="rgb(16,16,16)" height="40px" width="40px" x="1000px" y="800px" /><rect fill="rgb(16,16,16)" height="40px" width="40px" x="1040px" y="800px" /><rect fill="rgb(16,16,16)" height="40px" width="40px" x="1080px" y="800px" /><rect fill="rgb(16,16,16)" height="40px" width="40px" x="1120px" y="800px" /><rect fill="rgb(100,25,16)" height="40px" width="40px" x="1160px" y="800px" /><rect fill="rgb(16,16,16)" height="40px" width="40px" x="1200px" y="800px" /><rect fill="rgb(16,16,16)" height="40px" width="40px" x="1240px" y="800px" /><rect fill="rgb(16,16,16)" height="40px" width="40px" x="1280px" y="800px" /><rect fill="rgb(16,16,16)" height="40px" width="40px" x="1320px" y="800px" /><rect fill="rgb(16,16,16)" height="40px" width="40px" x="1360px" y="800px" /><rect fill="rgb(255,255,255)" height="40px" width="40px" x="1400px" y="800px" /><rect fill="rgb(255,255,255)" height="40px" width="40px" x="1440px" y="800px" /><rect fill="rgb(0,0,0)" height="40px" width="40px" x="1480px" y="800px" /><rect fill="rgb(0,0,0)" height="40px" width="40px" x="960px" y="840px" /><rect fill="rgb(16,16,16)" height="40px" width="40px" x="1000px" y="840px" /><rect fill="rgb(16,16,16)" height="40px" width="40px" x="1040px" y="840px" /><rect fill="rgb(16,16,16)" height="40px" width="40px" x="1080px" y="840px" /><rect fill="rgb(16,16,16)" height="40px" width="40px" x="1120px" y="840px" /><rect fill="rgb(16,16,16)" height="40px" width="40px" x="1160px" y="840px" /><rect fill="rgb(16,16,16)" height="40px" width="40px" x="1200px" y="840px" /><rect fill="rgb(16,16,16)" height="40px" width="40px" x="1240px" y="840px" /><rect fill="rgb(16,16,16)" height="40px" width="40px" x="1280px" y="840px" /><rect fill="rgb(16,16,16)" height="40px" width="40px" x="1320px" y="840px" /><rect fill="rgb(16,16,16)" height="40px" width="40px" x="1360px" y="840px" /><rect fill="rgb(255,255,255)" height="40px" width="40px" x="1400px" y="840px" /><rect fill="rgb(255,255,255)" height="40px" width="40px" x="1440px" y="840px" /><rect fill="rgb(0,0,0)" height="40px" width="40px" x="1480px" y="840px" /><rect fill="rgb(0,0,0)" height="40px" width="40px" x="960px" y="880px" /><rect fill="rgb(16,16,16)" height="40px" width="40px" x="1000px" y="880px" /><rect fill="rgb(16,16,16)" height="40px" width="40px" x="1040px" y="880px" /><rect fill="rgb(16,16,16)" height="40px" width="40px" x="1080px" y="880px" /><rect fill="rgb(16,16,16)" height="40px" width="40px" x="1120px" y="880px" /><rect fill="rgb(16,16,16)" height="40px" width="40px" x="1160px" y="880px" /><rect fill="rgb(16,16,16)" height="40px" width="40px" x="1200px" y="880px" /><rect fill="rgb(16,16,16)" height="40px" width="40px" x="1240px" y="880px" /><rect fill="rgb(16,16,16)" height="40px" width="40px" x="1280px" y="880px" /><rect fill="rgb(16,16,16)" height="40px" width="40px" x="1320px" y="880px" /><rect fill="rgb(16,16,16)" height="40px" width="40px" x="1360px" y="880px" /><rect fill="rgb(255,255,255)" height="40px" width="40px" x="1400px" y="880px" /><rect fill="rgb(255,255,255)" height="40px" width="40px" x="1440px" y="880px" /><rect fill="rgb(0,0,0)" height="40px" width="40px" x="1480px" y="880px" /><rect fill="rgb(0,0,0)" height="40px" width="40px" x="960px" y="920px" /><rect fill="rgb(16,16,16)" height="40px" width="40px" x="1000px" y="920px" /><rect fill="rgb(16,16,16)" height="40px" width="40px" x="1040px" y="920px" /><rect fill="rgb(16,16,16)" height="40px" width="40px" x="1080px" y="920px" /><rect fill="rgb(16,16,16)" height="40px" width="40px" x="1120px" y="920px" /><rect fill="rgb(100,25,16)" height="40px" width="40px" x="1160px" y="920px" /><rect fill="rgb(16,16,16)" height="40px" width="40px" x="1200px" y="920px" /><rect fill="rgb(16,16,16)" height="40px" width="40px" x="1240px" y="920px" /><rect fill="rgb(16,16,16)" height="40px" width="40px" x="1280px" y="920px" /><rect fill="rgb(16,16,16)" height="40px" width="40px" x="1320px" y="920px" /><rect fill="rgb(16,16,16)" height="40px" width="40px" x="1360px" y="920px" /><rect fill="rgb(255,255,255)" height="40px" width="40px" x="1400px" y="920px" /><rect fill="rgb(255,255,255)" height="40px" width="40px" x="1440px" y="920px" /><rect fill="rgb(0,0,0)" height="40px" width="40px" x="1480px" y="920px" /><rect fill="rgb(0,0,0)" height="40px" width="40px" x="960px" y="960px" /><rect fill="rgb(16,16,16)" height="40px" width="40px" x="1000px" y="960px" /><rect fill="rgb(16,16,16)" height="40px" width="40px" x="1040px" y="960px" /><rect fill="rgb(16,16,16)" height="40px" width="40px" x="1080px" y="960px" /><rect fill="rgb(16,16,16)" height="40px" width="40px" x="1120px" y="960px" /><rect fill="rgb(16,16,16)" height="40px" width="40px" x="1160px" y="960px" /><rect fill="rgb(16,16,16)" height="40px" width="40px" x="1200px" y="960px" /><rect fill="rgb(16,16,16)" height="40px" width="40px" x="1240px" y="960px" /><rect fill="rgb(16,16,16)" height="40px" width="40px" x="1280px" y="960px" /><rect fill="rgb(16,16,16)" height="40px" width="40px" x="1320px" y="960px" /><rect fill="rgb(16,16,16)" height="40px" width="40px" x="1360px" y="960px" /><rect fill="rgb(255,255,255)" height="40px" width="40px" x="1400px" y="960px" /><rect fill="rgb(255,255,255)" height="40px" width="40px" x="1440px" y="960px" /><rect fill="rgb(0,0,0)" height="40px" width="40px" x="1480px" y="960px" /><rect fill="rgb(0,0,0)" height="40px" width="40px" x="960px" y="1000px" /><rect fill="rgb(16,16,16)" height="40px" width="40px" x="1000px" y="1000px" /><rect fill="rgb(16,16,16)" height="40px" width="40px" x="1040px" y="1000px" /><rect fill="rgb(16,16,16)" height="40px" width="40px" x="1080px" y="1000px" /><rect fill="rgb(16,16,16)" height="40px" width="40px" x="1120px" y="1000px" /><rect fill="rgb(16,16,16)" height="40px" width="40px" x="1160px" y="1000px" /><rect fill="rgb(16,16,16)" height="40px" width="40px" x="1200px" y="1000px" /><rect fill="rgb(16,16,16)" height="40px" width="40px" x="1240px" y="1000px" /><rect fill="rgb(16,16,16)" height="40px" width="40px" x="1280px" y="1000px" /><rect fill="rgb(16,16,16)" height="40px" width="40px" x="1320px" y="1000px" /><rect fill="rgb(16,16,16)" height="40px" width="40px" x="1360px" y="1000px" /><rect fill="rgb(255,255,255)" height="40px" width="40px" x="1400px" y="1000px" /><rect fill="rgb(255,255,255)" height="40px" width="40px" x="1440px" y="1000px" /><rect fill="rgb(0,0,0)" height="40px" width="40px" x="1480px" y="1000px" /><rect fill="rgb(0,0,0)" height="40px" width="40px" x="1000px" y="1040px" /><rect fill="rgb(16,16,16)" height="40px" width="40px" x="1040px" y="1040px" /><rect fill="rgb(16,16,16)" height="40px" width="40px" x="1080px" y="1040px" /><rect fill="rgb(16,16,16)" height="40px" width="40px" x="1120px" y="1040px" /><rect fill="rgb(100,25,16)" height="40px" width="40px" x="1160px" y="1040px" /><rect fill="rgb(16,16,16)" height="40px" width="40px" x="1200px" y="1040px" /><rect fill="rgb(16,16,16)" height="40px" width="40px" x="1240px" y="1040px" /><rect fill="rgb(16,16,16)" height="40px" width="40px" x="1280px" y="1040px" /><rect fill="rgb(16,16,16)" height="40px" width="40px" x="1320px" y="1040px" /><rect fill="rgb(16,16,16)" height="40px" width="40px" x="1360px" y="1040px" /><rect fill="rgb(255,255,255)" height="40px" width="40px" x="1400px" y="1040px" /><rect fill="rgb(255,255,255)" height="40px" width="40px" x="1440px" y="1040px" /><rect fill="rgb(0,0,0)" height="40px" width="40px" x="1480px" y="1040px" /><rect fill="rgb(0,0,0)" height="40px" width="40px" x="1000px" y="1080px" /><rect fill="rgb(16,16,16)" height="40px" width="40px" x="1040px" y="1080px" /><rect fill="rgb(16,16,16)" height="40px" width="40px" x="1080px" y="1080px" /><rect fill="rgb(16,16,16)" height="40px" width="40px" x="1120px" y="1080px" /><rect fill="rgb(16,16,16)" height="40px" width="40px" x="1160px" y="1080px" /><rect fill="rgb(16,16,16)" height="40px" width="40px" x="1200px" y="1080px" /><rect fill="rgb(16,16,16)" height="40px" width="40px" x="1240px" y="1080px" /><rect fill="rgb(16,16,16)" height="40px" width="40px" x="1280px" y="1080px" /><rect fill="rgb(16,16,16)" height="40px" width="40px" x="1320px" y="1080px" /><rect fill="rgb(16,16,16)" height="40px" width="40px" x="1360px" y="1080px" /><rect fill="rgb(255,255,255)" height="40px" width="40px" x="1400px" y="1080px" /><rect fill="rgb(255,255,255)" height="40px" width="40px" x="1440px" y="1080px" /><rect fill="rgb(0,0,0)" height="40px" width="40px" x="1480px" y="1080px" /><rect fill="rgb(0,0,0)" height="40px" width="40px" x="1000px" y="1120px" /><rect fill="rgb(16,16,16)" height="40px" width="40px" x="1040px" y="1120px" /><rect fill="rgb(16,16,16)" height="40px" width="40px" x="1080px" y="1120px" /><rect fill="rgb(16,16,16)" height="40px" width="40px" x="1120px" y="1120px" /><rect fill="rgb(16,16,16)" height="40px" width="40px" x="1160px" y="1120px" /><rect fill="rgb(16,16,16)" height="40px" width="40px" x="1200px" y="1120px" /><rect fill="rgb(16,16,16)" height="40px" width="40px" x="1240px" y="1120px" /><rect fill="rgb(16,16,16)" height="40px" width="40px" x="1280px" y="1120px" /><rect fill="rgb(16,16,16)" height="40px" width="40px" x="1320px" y="1120px" /><rect fill="rgb(16,16,16)" height="40px" width="40px" x="1360px" y="1120px" /><rect fill="rgb(255,255,255)" height="40px" width="40px" x="1400px" y="1120px" /><rect fill="rgb(255,255,255)" height="40px" width="40px" x="1440px" y="1120px" /><rect fill="rgb(0,0,0)" height="40px" width="40px" x="1480px" y="1120px" /><rect fill="rgb(0,0,0)" height="40px" width="40px" x="1000px" y="1160px" /><rect fill="rgb(16,16,16)" height="40px" width="40px" x="1040px" y="1160px" /><rect fill="rgb(16,16,16)" height="40px" width="40px" x="1080px" y="1160px" /><rect fill="rgb(16,16,16)" height="40px" width="40px" x="1120px" y="1160px" /><rect fill="rgb(100,25,16)" height="40px" width="40px" x="1160px" y="1160px" /><rect fill="rgb(16,16,16)" height="40px" width="40px" x="1200px" y="1160px" /><rect fill="rgb(16,16,16)" height="40px" width="40px" x="1240px" y="1160px" /><rect fill="rgb(16,16,16)" height="40px" width="40px" x="1280px" y="1160px" /><rect fill="rgb(16,16,16)" height="40px" width="40px" x="1320px" y="1160px" /><rect fill="rgb(16,16,16)" height="40px" width="40px" x="1360px" y="1160px" /><rect fill="rgb(255,255,255)" height="40px" width="40px" x="1400px" y="1160px" /><rect fill="rgb(255,255,255)" height="40px" width="40px" x="1440px" y="1160px" /><rect fill="rgb(0,0,0)" height="40px" width="40px" x="1480px" y="1160px" /><rect fill="rgb(0,0,0)" height="40px" width="40px" x="1000px" y="1200px" /><rect fill="rgb(16,16,16)" height="40px" width="40px" x="1040px" y="1200px" /><rect fill="rgb(16,16,16)" height="40px" width="40px" x="1080px" y="1200px" /><rect fill="rgb(16,16,16)" height="40px" width="40px" x="1120px" y="1200px" /><rect fill="rgb(16,16,16)" height="40px" width="40px" x="1160px" y="1200px" /><rect fill="rgb(16,16,16)" height="40px" width="40px" x="1200px" y="1200px" /><rect fill="rgb(16,16,16)" height="40px" width="40px" x="1240px" y="1200px" /><rect fill="rgb(16,16,16)" height="40px" width="40px" x="1280px" y="1200px" /><rect fill="rgb(16,16,16)" height="40px" width="40px" x="1320px" y="1200px" /><rect fill="rgb(16,16,16)" height="40px" width="40px" x="1360px" y="1200px" /><rect fill="rgb(255,255,255)" height="40px" width="40px" x="1400px" y="1200px" /><rect fill="rgb(255,255,255)" height="40px" width="40px" x="1440px" y="1200px" /><rect fill="rgb(0,0,0)" height="40px" width="40px" x="1480px" y="1200px" /><rect fill="rgb(0,0,0)" height="40px" width="40px" x="1000px" y="1240px" /><rect fill="rgb(116,36,26)" height="40px" width="40px" x="1040px" y="1240px" /><rect fill="rgb(116,36,26)" height="40px" width="40px" x="1080px" y="1240px" /><rect fill="rgb(116,36,26)" height="40px" width="40px" x="1120px" y="1240px" /><rect fill="rgb(116,36,26)" height="40px" width="40px" x="1160px" y="1240px" /><rect fill="rgb(116,36,26)" height="40px" width="40px" x="1200px" y="1240px" /><rect fill="rgb(116,36,26)" height="40px" width="40px" x="1240px" y="1240px" /><rect fill="rgb(116,36,26)" height="40px" width="40px" x="1280px" y="1240px" /><rect fill="rgb(116,36,26)" height="40px" width="40px" x="1320px" y="1240px" /><rect fill="rgb(116,36,26)" height="40px" width="40px" x="1360px" y="1240px" /><rect fill="rgb(255,255,255)" height="40px" width="40px" x="1400px" y="1240px" /><rect fill="rgb(255,255,255)" height="40px" width="40px" x="1440px" y="1240px" /><rect fill="rgb(0,0,0)" height="40px" width="40px" x="1480px" y="1240px" /><rect fill="rgb(0,0,0)" height="40px" width="40px" x="1000px" y="1280px" /><rect fill="rgb(116,36,26)" height="40px" width="40px" x="1040px" y="1280px" /><rect fill="rgb(116,36,26)" height="40px" width="40px" x="1080px" y="1280px" /><rect fill="rgb(116,36,26)" height="40px" width="40px" x="1120px" y="1280px" /><rect fill="rgb(116,36,26)" height="40px" width="40px" x="1160px" y="1280px" /><rect fill="rgb(116,36,26)" height="40px" width="40px" x="1200px" y="1280px" /><rect fill="rgb(116,36,26)" height="40px" width="40px" x="1240px" y="1280px" /><rect fill="rgb(116,36,26)" height="40px" width="40px" x="1280px" y="1280px" /><rect fill="rgb(116,36,26)" height="40px" width="40px" x="1320px" y="1280px" /><rect fill="rgb(116,36,26)" height="40px" width="40px" x="1360px" y="1280px" /><rect fill="rgb(255,255,255)" height="40px" width="40px" x="1400px" y="1280px" /><rect fill="rgb(255,255,255)" height="40px" width="40px" x="1440px" y="1280px" /><rect fill="rgb(0,0,0)" height="40px" width="40px" x="1480px" y="1280px" /><rect fill="rgb(0,0,0)" height="40px" width="40px" x="1000px" y="1320px" /><rect fill="rgb(16,16,16)" height="40px" width="40px" x="1040px" y="1320px" /><rect fill="rgb(16,16,16)" height="40px" width="40px" x="1080px" y="1320px" /><rect fill="rgb(16,16,16)" height="40px" width="40px" x="1120px" y="1320px" /><rect fill="rgb(0,0,0)" height="40px" width="40px" x="1160px" y="1320px" /><rect fill="rgb(0,0,0)" height="40px" width="40px" x="1200px" y="1320px" /><rect fill="rgb(0,0,0)" height="40px" width="40px" x="1240px" y="1320px" /><rect fill="rgb(16,16,16)" height="40px" width="40px" x="1280px" y="1320px" /><rect fill="rgb(16,16,16)" height="40px" width="40px" x="1320px" y="1320px" /><rect fill="rgb(16,16,16)" height="40px" width="40px" x="1360px" y="1320px" /><rect fill="rgb(255,255,255)" height="40px" width="40px" x="1400px" y="1320px" /><rect fill="rgb(255,255,255)" height="40px" width="40px" x="1440px" y="1320px" /><rect fill="rgb(0,0,0)" height="40px" width="40px" x="1480px" y="1320px" /><rect fill="rgb(0,0,0)" height="40px" width="40px" x="1000px" y="1360px" /><rect fill="rgb(16,16,16)" height="40px" width="40px" x="1040px" y="1360px" /><rect fill="rgb(16,16,16)" height="40px" width="40px" x="1080px" y="1360px" /><rect fill="rgb(16,16,16)" height="40px" width="40px" x="1120px" y="1360px" /><rect fill="rgb(0,0,0)" height="40px" width="40px" x="1160px" y="1360px" /><rect fill="rgb(0,0,0)" height="40px" width="40px" x="1240px" y="1360px" /><rect fill="rgb(16,16,16)" height="40px" width="40px" x="1280px" y="1360px" /><rect fill="rgb(16,16,16)" height="40px" width="40px" x="1320px" y="1360px" /><rect fill="rgb(16,16,16)" height="40px" width="40px" x="1360px" y="1360px" /><rect fill="rgb(238,195,154)" height="40px" width="40px" x="1400px" y="1360px" /><rect fill="rgb(238,195,154)" height="40px" width="40px" x="1440px" y="1360px" /><rect fill="rgb(0,0,0)" height="40px" width="40px" x="1480px" y="1360px" /><rect fill="rgb(0,0,0)" height="40px" width="40px" x="1000px" y="1400px" /><rect fill="rgb(16,16,16)" height="40px" width="40px" x="1040px" y="1400px" /><rect fill="rgb(16,16,16)" height="40px" width="40px" x="1080px" y="1400px" /><rect fill="rgb(16,16,16)" height="40px" width="40px" x="1120px" y="1400px" /><rect fill="rgb(0,0,0)" height="40px" width="40px" x="1160px" y="1400px" /><rect fill="rgb(0,0,0)" height="40px" width="40px" x="1240px" y="1400px" /><rect fill="rgb(16,16,16)" height="40px" width="40px" x="1280px" y="1400px" /><rect fill="rgb(16,16,16)" height="40px" width="40px" x="1320px" y="1400px" /><rect fill="rgb(16,16,16)" height="40px" width="40px" x="1360px" y="1400px" /><rect fill="rgb(238,195,154)" height="40px" width="40px" x="1400px" y="1400px" /><rect fill="rgb(238,195,154)" height="40px" width="40px" x="1440px" y="1400px" /><rect fill="rgb(0,0,0)" height="40px" width="40px" x="1480px" y="1400px" /><rect fill="rgb(0,0,0)" height="40px" width="40px" x="1000px" y="1440px" /><rect fill="rgb(16,16,16)" height="40px" width="40px" x="1040px" y="1440px" /><rect fill="rgb(16,16,16)" height="40px" width="40px" x="1080px" y="1440px" /><rect fill="rgb(16,16,16)" height="40px" width="40px" x="1120px" y="1440px" /><rect fill="rgb(0,0,0)" height="40px" width="40px" x="1160px" y="1440px" /><rect fill="rgb(0,0,0)" height="40px" width="40px" x="1240px" y="1440px" /><rect fill="rgb(16,16,16)" height="40px" width="40px" x="1280px" y="1440px" /><rect fill="rgb(16,16,16)" height="40px" width="40px" x="1320px" y="1440px" /><rect fill="rgb(16,16,16)" height="40px" width="40px" x="1360px" y="1440px" /><rect fill="rgb(0,0,0)" height="40px" width="40px" x="1400px" y="1440px" /><rect fill="rgb(0,0,0)" height="40px" width="40px" x="1440px" y="1440px" /><rect fill="rgb(0,0,0)" height="40px" width="40px" x="1000px" y="1480px" /><rect fill="rgb(16,16,16)" height="40px" width="40px" x="1040px" y="1480px" /><rect fill="rgb(16,16,16)" height="40px" width="40px" x="1080px" y="1480px" /><rect fill="rgb(16,16,16)" height="40px" width="40px" x="1120px" y="1480px" /><rect fill="rgb(0,0,0)" height="40px" width="40px" x="1160px" y="1480px" /><rect fill="rgb(0,0,0)" height="40px" width="40px" x="1240px" y="1480px" /><rect fill="rgb(16,16,16)" height="40px" width="40px" x="1280px" y="1480px" /><rect fill="rgb(16,16,16)" height="40px" width="40px" x="1320px" y="1480px" /><rect fill="rgb(16,16,16)" height="40px" width="40px" x="1360px" y="1480px" /><rect fill="rgb(0,0,0)" height="40px" width="40px" x="1400px" y="1480px" /><rect fill="rgb(0,0,0)" height="40px" width="40px" x="1000px" y="1520px" /><rect fill="rgb(16,16,16)" height="40px" width="40px" x="1040px" y="1520px" /><rect fill="rgb(16,16,16)" height="40px" width="40px" x="1080px" y="1520px" /><rect fill="rgb(16,16,16)" height="40px" width="40px" x="1120px" y="1520px" /><rect fill="rgb(0,0,0)" height="40px" width="40px" x="1160px" y="1520px" /><rect fill="rgb(0,0,0)" height="40px" width="40px" x="1240px" y="1520px" /><rect fill="rgb(16,16,16)" height="40px" width="40px" x="1280px" y="1520px" /><rect fill="rgb(16,16,16)" height="40px" width="40px" x="1320px" y="1520px" /><rect fill="rgb(16,16,16)" height="40px" width="40px" x="1360px" y="1520px" /><rect fill="rgb(0,0,0)" height="40px" width="40px" x="1400px" y="1520px" /><rect fill="rgb(0,0,0)" height="40px" width="40px" x="1000px" y="1560px" /><rect fill="rgb(16,16,16)" height="40px" width="40px" x="1040px" y="1560px" /><rect fill="rgb(16,16,16)" height="40px" width="40px" x="1080px" y="1560px" /><rect fill="rgb(16,16,16)" height="40px" width="40px" x="1120px" y="1560px" /><rect fill="rgb(0,0,0)" height="40px" width="40px" x="1160px" y="1560px" /><rect fill="rgb(0,0,0)" height="40px" width="40px" x="1240px" y="1560px" /><rect fill="rgb(16,16,16)" height="40px" width="40px" x="1280px" y="1560px" /><rect fill="rgb(16,16,16)" height="40px" width="40px" x="1320px" y="1560px" /><rect fill="rgb(16,16,16)" height="40px" width="40px" x="1360px" y="1560px" /><rect fill="rgb(0,0,0)" height="40px" width="40px" x="1400px" y="1560px" /><rect fill="rgb(0,0,0)" height="40px" width="40px" x="1000px" y="1600px" /><rect fill="rgb(16,16,16)" height="40px" width="40px" x="1040px" y="1600px" /><rect fill="rgb(16,16,16)" height="40px" width="40px" x="1080px" y="1600px" /><rect fill="rgb(16,16,16)" height="40px" width="40px" x="1120px" y="1600px" /><rect fill="rgb(0,0,0)" height="40px" width="40px" x="1160px" y="1600px" /><rect fill="rgb(0,0,0)" height="40px" width="40px" x="1240px" y="1600px" /><rect fill="rgb(16,16,16)" height="40px" width="40px" x="1280px" y="1600px" /><rect fill="rgb(16,16,16)" height="40px" width="40px" x="1320px" y="1600px" /><rect fill="rgb(16,16,16)" height="40px" width="40px" x="1360px" y="1600px" /><rect fill="rgb(0,0,0)" height="40px" width="40px" x="1400px" y="1600px" /><rect fill="rgb(0,0,0)" height="40px" width="40px" x="1000px" y="1640px" /><rect fill="rgb(16,16,16)" height="40px" width="40px" x="1040px" y="1640px" /><rect fill="rgb(16,16,16)" height="40px" width="40px" x="1080px" y="1640px" /><rect fill="rgb(16,16,16)" height="40px" width="40px" x="1120px" y="1640px" /><rect fill="rgb(0,0,0)" height="40px" width="40px" x="1160px" y="1640px" /><rect fill="rgb(0,0,0)" height="40px" width="40px" x="1240px" y="1640px" /><rect fill="rgb(16,16,16)" height="40px" width="40px" x="1280px" y="1640px" /><rect fill="rgb(16,16,16)" height="40px" width="40px" x="1320px" y="1640px" /><rect fill="rgb(16,16,16)" height="40px" width="40px" x="1360px" y="1640px" /><rect fill="rgb(0,0,0)" height="40px" width="40px" x="1400px" y="1640px" /><rect fill="rgb(0,0,0)" height="40px" width="40px" x="1000px" y="1680px" /><rect fill="rgb(16,16,16)" height="40px" width="40px" x="1040px" y="1680px" /><rect fill="rgb(16,16,16)" height="40px" width="40px" x="1080px" y="1680px" /><rect fill="rgb(16,16,16)" height="40px" width="40px" x="1120px" y="1680px" /><rect fill="rgb(0,0,0)" height="40px" width="40px" x="1160px" y="1680px" /><rect fill="rgb(0,0,0)" height="40px" width="40px" x="1240px" y="1680px" /><rect fill="rgb(16,16,16)" height="40px" width="40px" x="1280px" y="1680px" /><rect fill="rgb(16,16,16)" height="40px" width="40px" x="1320px" y="1680px" /><rect fill="rgb(16,16,16)" height="40px" width="40px" x="1360px" y="1680px" /><rect fill="rgb(0,0,0)" height="40px" width="40px" x="1400px" y="1680px" /><rect fill="rgb(0,0,0)" height="40px" width="40px" x="1000px" y="1720px" /><rect fill="rgb(16,16,16)" height="40px" width="40px" x="1040px" y="1720px" /><rect fill="rgb(16,16,16)" height="40px" width="40px" x="1080px" y="1720px" /><rect fill="rgb(16,16,16)" height="40px" width="40px" x="1120px" y="1720px" /><rect fill="rgb(0,0,0)" height="40px" width="40px" x="1160px" y="1720px" /><rect fill="rgb(0,0,0)" height="40px" width="40px" x="1240px" y="1720px" /><rect fill="rgb(16,16,16)" height="40px" width="40px" x="1280px" y="1720px" /><rect fill="rgb(16,16,16)" height="40px" width="40px" x="1320px" y="1720px" /><rect fill="rgb(16,16,16)" height="40px" width="40px" x="1360px" y="1720px" /><rect fill="rgb(0,0,0)" height="40px" width="40px" x="1400px" y="1720px" /><rect fill="rgb(0,0,0)" height="40px" width="40px" x="1000px" y="1760px" /><rect fill="rgb(16,16,16)" height="40px" width="40px" x="1040px" y="1760px" /><rect fill="rgb(16,16,16)" height="40px" width="40px" x="1080px" y="1760px" /><rect fill="rgb(16,16,16)" height="40px" width="40px" x="1120px" y="1760px" /><rect fill="rgb(0,0,0)" height="40px" width="40px" x="1160px" y="1760px" /><rect fill="rgb(0,0,0)" height="40px" width="40px" x="1240px" y="1760px" /><rect fill="rgb(16,16,16)" height="40px" width="40px" x="1280px" y="1760px" /><rect fill="rgb(16,16,16)" height="40px" width="40px" x="1320px" y="1760px" /><rect fill="rgb(16,16,16)" height="40px" width="40px" x="1360px" y="1760px" /><rect fill="rgb(0,0,0)" height="40px" width="40px" x="1400px" y="1760px" /><rect fill="rgb(0,0,0)" height="40px" width="40px" x="1000px" y="1800px" /><rect fill="rgb(16,16,16)" height="40px" width="40px" x="1040px" y="1800px" /><rect fill="rgb(16,16,16)" height="40px" width="40px" x="1080px" y="1800px" /><rect fill="rgb(16,16,16)" height="40px" width="40px" x="1120px" y="1800px" /><rect fill="rgb(0,0,0)" height="40px" width="40px" x="1160px" y="1800px" /><rect fill="rgb(0,0,0)" height="40px" width="40px" x="1240px" y="1800px" /><rect fill="rgb(16,16,16)" height="40px" width="40px" x="1280px" y="1800px" /><rect fill="rgb(16,16,16)" height="40px" width="40px" x="1320px" y="1800px" /><rect fill="rgb(16,16,16)" height="40px" width="40px" x="1360px" y="1800px" /><rect fill="rgb(0,0,0)" height="40px" width="40px" x="1400px" y="1800px" /><rect fill="rgb(0,0,0)" height="40px" width="40px" x="1000px" y="1840px" /><rect fill="rgb(16,16,16)" height="40px" width="40px" x="1040px" y="1840px" /><rect fill="rgb(16,16,16)" height="40px" width="40px" x="1080px" y="1840px" /><rect fill="rgb(16,16,16)" height="40px" width="40px" x="1120px" y="1840px" /><rect fill="rgb(0,0,0)" height="40px" width="40px" x="1160px" y="1840px" /><rect fill="rgb(0,0,0)" height="40px" width="40px" x="1240px" y="1840px" /><rect fill="rgb(16,16,16)" height="40px" width="40px" x="1280px" y="1840px" /><rect fill="rgb(16,16,16)" height="40px" width="40px" x="1320px" y="1840px" /><rect fill="rgb(16,16,16)" height="40px" width="40px" x="1360px" y="1840px" /><rect fill="rgb(0,0,0)" height="40px" width="40px" x="1400px" y="1840px" /><rect fill="rgb(0,0,0)" height="40px" width="40px" x="960px" y="1880px" /><rect fill="rgb(0,0,0)" height="40px" width="40px" x="1000px" y="1880px" /><rect fill="rgb(76,14,7)" height="40px" width="40px" x="1040px" y="1880px" /><rect fill="rgb(76,14,7)" height="40px" width="40px" x="1080px" y="1880px" /><rect fill="rgb(76,14,7)" height="40px" width="40px" x="1120px" y="1880px" /><rect fill="rgb(0,0,0)" height="40px" width="40px" x="1160px" y="1880px" /><rect fill="rgb(0,0,0)" height="40px" width="40px" x="1240px" y="1880px" /><rect fill="rgb(76,14,7)" height="40px" width="40px" x="1280px" y="1880px" /><rect fill="rgb(76,14,7)" height="40px" width="40px" x="1320px" y="1880px" /><rect fill="rgb(76,14,7)" height="40px" width="40px" x="1360px" y="1880px" /><rect fill="rgb(0,0,0)" height="40px" width="40px" x="1400px" y="1880px" /><rect fill="rgb(0,0,0)" height="40px" width="40px" x="920px" y="1920px" /><rect fill="rgb(76,14,7)" height="40px" width="40px" x="960px" y="1920px" /><rect fill="rgb(76,14,7)" height="40px" width="40px" x="1000px" y="1920px" /><rect fill="rgb(76,14,7)" height="40px" width="40px" x="1040px" y="1920px" /><rect fill="rgb(76,14,7)" height="40px" width="40px" x="1080px" y="1920px" /><rect fill="rgb(76,14,7)" height="40px" width="40px" x="1120px" y="1920px" /><rect fill="rgb(0,0,0)" height="40px" width="40px" x="1160px" y="1920px" /><rect fill="rgb(0,0,0)" height="40px" width="40px" x="1200px" y="1920px" /><rect fill="rgb(76,14,7)" height="40px" width="40px" x="1240px" y="1920px" /><rect fill="rgb(76,14,7)" height="40px" width="40px" x="1280px" y="1920px" /><rect fill="rgb(76,14,7)" height="40px" width="40px" x="1320px" y="1920px" /><rect fill="rgb(76,14,7)" height="40px" width="40px" x="1360px" y="1920px" /><rect fill="rgb(0,0,0)" height="40px" width="40px" x="1400px" y="1920px" /><rect fill="rgb(0,0,0)" height="40px" width="40px" x="920px" y="1960px" /><rect fill="rgb(76,14,7)" height="40px" width="40px" x="960px" y="1960px" /><rect fill="rgb(76,14,7)" height="40px" width="40px" x="1000px" y="1960px" /><rect fill="rgb(76,14,7)" height="40px" width="40px" x="1040px" y="1960px" /><rect fill="rgb(76,14,7)" height="40px" width="40px" x="1080px" y="1960px" /><rect fill="rgb(76,14,7)" height="40px" width="40px" x="1120px" y="1960px" /><rect fill="rgb(0,0,0)" height="40px" width="40px" x="1160px" y="1960px" /><rect fill="rgb(0,0,0)" height="40px" width="40px" x="1200px" y="1960px" /><rect fill="rgb(76,14,7)" height="40px" width="40px" x="1240px" y="1960px" /><rect fill="rgb(76,14,7)" height="40px" width="40px" x="1280px" y="1960px" /><rect fill="rgb(76,14,7)" height="40px" width="40px" x="1320px" y="1960px" /><rect fill="rgb(76,14,7)" height="40px" width="40px" x="1360px" y="1960px" /><rect fill="rgb(0,0,0)" height="40px" width="40px" x="1400px" y="1960px" /></svg>