<?xml version="1.0" encoding="utf-8" ?>
<svg baseProfile="full" height="2400px" version="1.1" width="2400px" xmlns="http://www.w3.org/2000/svg" xmlns:ev="http://www.w3.org/2001/xml-events" xmlns:xlink="http://www.w3.org/1999/xlink"><defs /><rect fill="rgb(50,60,57)" height="40px" width="40px" x="800px" y="800px" /><rect fill="rgb(50,60,57)" height="40px" width="40px" x="840px" y="800px" /><rect fill="rgb(50,60,57)" height="40px" width="40px" x="880px" y="800px" /><rect fill="rgb(50,60,57)" height="40px" width="40px" x="920px" y="800px" /><rect fill="rgb(50,60,57)" height="40px" width="40px" x="960px" y="800px" /><rect fill="rgb(50,60,57)" height="40px" width="40px" x="1000px" y="800px" /><rect fill="rgb(50,60,57)" height="40px" width="40px" x="1040px" y="800px" /><rect fill="rgb(50,60,57)" height="40px" width="40px" x="1080px" y="800px" /><rect fill="rgb(50,60,57)" height="40px" width="40px" x="1120px" y="800px" /><rect fill="rgb(50,60,57)" height="40px" width="40px" x="1160px" y="800px" /><rect fill="rgb(50,60,57)" height="40px" width="40px" x="1200px" y="800px" /><rect fill="rgb(50,60,57)" height="40px" width="40px" x="1240px" y="800px" /><rect fill="rgb(50,60,57)" height="40px" width="40px" x="800px" y="840px" /><rect fill="rgb(50,60,57)" height="40px" width="40px" x="840px" y="840px" /><rect fill="rgb(203,219,252)" height="40px" width="40px" x="880px" y="840px" /><rect fill="rgb(203,219,252)" height="40px" width="40px" x="920px" y="840px" /><rect fill="rgb(203,219,252)" height="40px" width="40px" x="960px" y="840px" /><rect fill="rgb(203,219,252)" height="40px" width="40px" x="1000px" y="840px" /><rect fill="rgb(203,219,252)" height="40px" width="40px" x="1040px" y="840px" /><rect fill="rgb(203,219,252)" height="40px" width="40px" x="1080px" y="840px" /><rect fill="rgb(203,219,252)" height="40px" width="40px" x="1120px" y="840px" /><rect fill="rgb(203,219,252)" height="40px" width="40px" x="1160px" y="840px" /><rect fill="rgb(50,60,57)" height="40px" width="40px" x="1200px" y="840px" /><rect fill="rgb(50,60,57)" height="40px" width="40px" x="1240px" y="840px" /><rect fill="rgb(50,60,57)" height="40px" width="40px" x="800px" y="880px" /><rect fill="rgb(50,60,57)" height="40px" width="40px" x="840px" y="880px" /><rect fill="rgb(162,3,3)" height="40px" width="40px" x="880px" y="880px" /><rect fill="rgb(162,3,3)" height="40px" width="40px" x="920px" y="880px" /><rect fill="rgb(162,3,3)" height="40px" width="40px" x="960px" y="880px" /><rect fill="rgb(186,3,3)" height="40px" width="40px" x="1000px" y="880px" /><rect fill="rgb(186,3,3)" height="40px" width="40px" x="1040px" y="880px" /><rect fill="rgb(162,3,3)" height="40px" width="40px" x="1080px" y="880px" /><rect fill="rgb(255,255,255)" height="40px" width="40px" x="1120px" y="880px" /><rect fill="rgb(162,3,3)" height="40px" width="40px" x="1160px" y="880px" /><rect fill="rgb(50,60,57)" height="40px" width="40px" x="1200px" y="880px" /><rect fill="rgb(50,60,57)" height="40px" width="40px" x="1240px" y="880px" /><rect fill="rgb(50,60,57)" height="40px" width="40px" x="800px" y="920px" /><rect fill="rgb(162,3,3)" height="40px" width="40px" x="840px" y="920px" /><rect fill="rgb(198,17,17)" height="40px" width="40px" x="880px" y="920px" /><rect fill="rgb(198,17,17)" height="40px" width="40px" x="920px" y="920px" /><rect fill="rgb(215,8,8)" height="40px" width="40px" x="960px" y="920px" /><rect fill="rgb(215,8,8)" height="40px" width="40px" x="1000px" y="920px" /><rect fill="rgb(215,8,8)" height="40px" width="40px" x="1040px" y="920px" /><rect fill="rgb(215,8,8)" height="40px" width="40px" x="1080px" y="920px" /><rect fill="rgb(255,255,255)" height="40px" width="40px" x="1120px" y="920px" /><rect fill="rgb(198,17,17)" height="40px" width="40px" x="1160px" y="920px" /><rect fill="rgb(162,3,3)" height="40px" width="40px" x="1200px" y="920px" /><rect fill="rgb(50,60,57)" height="40px" width="40px" x="1240px" y="920px" /><rect fill="rgb(50,60,57)" height="40px" width="40px" x="800px" y="960px" /><rect fill="rgb(162,3,3)" height="40px" width="40px" x="840px" y="960px" /><rect fill="rgb(198,17,17)" height="40px" width="40px" x="880px" y="960px" /><rect fill="rgb(215,8,8)" height="40px" width="40px" x="920px" y="960px" /><rect fill="rgb(215,8,8)" height="40px" width="40px" x="960px" y="960px" /><rect fill="rgb(215,8,8)" height="40px" width="40px" x="1000px" y="960px" /><rect fill="rgb(215,8,8)" height="40px" width="40px" x="1040px" y="960px" /><rect fill="rgb(215,8,8)" height="40px" width="40px" x="1080px" y="960px" /><rect fill="rgb(255,255,255)" height="40px" width="40px" x="1120px" y="960px" /><rect fill="rgb(198,17,17)" height="40px" width="40px" x="1160px" y="960px" /><rect fill="rgb(162,3,3)" height="40px" width="40px" x="1200px" y="960px" /><rect fill="rgb(50,60,57)" height="40px" width="40px" x="1240px" y="960px" /><rect fill="rgb(50,60,57)" height="40px" width="40px" x="800px" y="1000px" /><rect fill="rgb(162,3,3)" height="40px" width="40px" x="840px" y="1000px" /><rect fill="rgb(198,17,17)" height="40px" width="40px" x="880px" y="1000px" /><rect fill="rgb(215,8,8)" height="40px" width="40px" x="920px" y="1000px" /><rect fill="rgb(215,8,8)" height="40px" width="40px" x="960px" y="1000px" /><rect fill="rgb(215,8,8)" height="40px" width="40px" x="1000px" y="1000px" /><rect fill="rgb(215,8,8)" height="40px" width="40px" x="1040px" y="1000px" /><rect fill="rgb(215,8,8)" height="40px" width="40px" x="1080px" y="1000px" /><rect fill="rgb(255,255,255)" height="40px" width="40px" x="1120px" y="1000px" /><rect fill="rgb(198,17,17)" height="40px" width="40px" x="1160px" y="1000px" /><rect fill="rgb(162,3,3)" height="40px" width="40px" x="1200px" y="1000px" /><rect fill="rgb(50,60,57)" height="40px" width="40px" x="1240px" y="1000px" /><rect fill="rgb(50,60,57)" height="40px" width="40px" x="800px" y="1040px" /><rect fill="rgb(162,3,3)" height="40px" width="40px" x="840px" y="1040px" /><rect fill="rgb(198,17,17)" height="40px" width="40px" x="880px" y="1040px" /><rect fill="rgb(215,8,8)" height="40px" width="40px" x="920px" y="1040px" /><rect fill="rgb(215,8,8)" height="40px" width="40px" x="960px" y="1040px" /><rect fill="rgb(215,8,8)" height="40px" width="40px" x="1000px" y="1040px" /><rect fill="rgb(215,8,8)" height="40px" width="40px" x="1040px" y="1040px" /><rect fill="rgb(215,8,8)" height="40px" width="40px" x="1080px" y="1040px" /><rect fill="rgb(255,255,255)" height="40px" width="40px" x="1120px" y="1040px" /><rect fill="rgb(198,17,17)" height="40px" width="40px" x="1160px" y="1040px" /><rect fill="rgb(162,3,3)" height="40px" width="40px" x="1200px" y="1040px" /><rect fill="rgb(50,60,57)" height="40px" width="40px" x="1240px" y="1040px" /><rect fill="rgb(50,60,57)" height="40px" width="40px" x="800px" y="1080px" /><rect fill="rgb(162,3,3)" height="40px" width="40px" x="840px" y="1080px" /><rect fill="rgb(198,17,17)" height="40px" width="40px" x="880px" y="1080px" /><rect fill="rgb(215,8,8)" height="40px" width="40px" x="920px" y="1080px" /><rect fill="rgb(215,8,8)" height="40px" width="40px" x="960px" y="1080px" /><rect fill="rgb(215,8,8)" height="40px" width="40px" x="1000px" y="1080px" /><rect fill="rgb(215,8,8)" height="40px" width="40px" x="1040px" y="1080px" /><rect fill="rgb(215,8,8)" height="40px" width="40px" x="1080px" y="1080px" /><rect fill="rgb(255,255,255)" height="40px" width="40px" x="1120px" y="1080px" /><rect fill="rgb(198,17,17)" height="40px" width="40px" x="1160px" y="1080px" /><rect fill="rgb(162,3,3)" height="40px" width="40px" x="1200px" y="1080px" /><rect fill="rgb(50,60,57)" height="40px" width="40px" x="1240px" y="1080px" /><rect fill="rgb(50,60,57)" height="40px" width="40px" x="800px" y="1120px" /><rect fill="rgb(162,3,3)" height="40px" width="40px" x="840px" y="1120px" /><rect fill="rgb(198,17,17)" height="40px" width="40px" x="880px" y="1120px" /><rect fill="rgb(215,8,8)" height="40px" width="40px" x="920px" y="1120px" /><rect fill="rgb(215,8,8)" height="40px" width="40px" x="960px" y="1120px" /><rect fill="rgb(215,8,8)" height="40px" width="40px" x="1000px" y="1120px" /><rect fill="rgb(215,8,8)" height="40px" width="40px" x="1040px" y="1120px" /><rect fill="rgb(215,8,8)" height="40px" width="40px" x="1080px" y="1120px" /><rect fill="rgb(255,255,255)" height="40px" width="40px" x="1120px" y="1120px" /><rect fill="rgb(198,17,17)" height="40px" width="40px" x="1160px" y="1120px" /><rect fill="rgb(162,3,3)" height="40px" width="40px" x="1200px" y="1120px" /><rect fill="rgb(50,60,57)" height="40px" width="40px" x="1240px" y="1120px" /><rect fill="rgb(50,60,57)" height="40px" width="40px" x="800px" y="1160px" /><rect fill="rgb(162,3,3)" height="40px" width="40px" x="840px" y="1160px" /><rect fill="rgb(198,17,17)" height="40px" width="40px" x="880px" y="1160px" /><rect fill="rgb(215,8,8)" height="40px" width="40px" x="920px" y="1160px" /><rect fill="rgb(215,8,8)" height="40px" width="40px" x="960px" y="1160px" /><rect fill="rgb(215,8,8)" height="40px" width="40px" x="1000px" y="1160px" /><rect fill="rgb(215,8,8)" height="40px" width="40px" x="1040px" y="1160px" /><rect fill="rgb(215,8,8)" height="40px" width="40px" x="1080px" y="1160px" /><rect fill="rgb(215,8,8)" height="40px" width="40px" x="1120px" y="1160px" /><rect fill="rgb(255,255,255)" height="40px" width="40px" x="1160px" y="1160px" /><rect fill="rgb(162,3,3)" height="40px" width="40px" x="1200px" y="1160px" /><rect fill="rgb(50,60,57)" height="40px" width="40px" x="1240px" y="1160px" /><rect fill="rgb(50,60,57)" height="40px" width="40px" x="800px" y="1200px" /><rect fill="rgb(162,3,3)" height="40px" width="40px" x="840px" y="1200px" /><rect fill="rgb(198,17,17)" height="40px" width="40px" x="880px" y="1200px" /><rect fill="rgb(215,8,8)" height="40px" width="40px" x="920px" y="1200px" /><rect fill="rgb(215,8,8)" height="40px" width="40px" x="960px" y="1200px" /><rect fill="rgb(215,8,8)" height="40px" width="40px" x="1000px" y="1200px" /><rect fill="rgb(215,8,8)" height="40px" width="40px" x="1040px" y="1200px" /><rect fill="rgb(215,8,8)" height="40px" width="40px" x="1080px" y="1200px" /><rect fill="rgb(215,8,8)" height="40px" width="40px" x="1120px" y="1200px" /><rect fill="rgb(255,255,255)" height="40px" width="40px" x="1160px" y="1200px" /><rect fill="rgb(162,3,3)" height="40px" width="40px" x="1200px" y="1200px" /><rect fill="rgb(50,60,57)" height="40px" width="40px" x="1240px" y="1200px" /><rect fill="rgb(50,60,57)" height="40px" width="40px" x="800px" y="1240px" /><rect fill="rgb(162,3,3)" height="40px" width="40px" x="840px" y="1240px" /><rect fill="rgb(198,17,17)" height="40px" width="40px" x="880px" y="1240px" /><rect fill="rgb(215,8,8)" height="40px" width="40px" x="920px" y="1240px" /><rect fill="rgb(215,8,8)" height="40px" width="40px" x="960px" y="1240px" /><rect fill="rgb(215,8,8)" height="40px" width="40px" x="1000px" y="1240px" /><rect fill="rgb(215,8,8)" height="40px" width="40px" x="1040px" y="1240px" /><rect fill="rgb(215,8,8)" height="40px" width="40px" x="1080px" y="1240px" /><rect fill="rgb(215,8,8)" height="40px" width="40px" x="1120px" y="1240px" /><rect fill="rgb(255,255,255)" height="40px" width="40px" x="1160px" y="1240px" /><rect fill="rgb(162,3,3)" height="40px" width="40px" x="1200px" y="1240px" /><rect fill="rgb(50,60,57)" height="40px" width="40px" x="1240px" y="1240px" /><rect fill="rgb(50,60,57)" height="40px" width="40px" x="800px" y="1280px" /><rect fill="rgb(162,3,3)" height="40px" width="40px" x="840px" y="1280px" /><rect fill="rgb(198,17,17)" height="40px" width="40px" x="880px" y="1280px" /><rect fill="rgb(215,8,8)" height="40px" width="40px" x="920px" y="1280px" /><rect fill="rgb(215,8,8)" height="40px" width="40px" x="960px" y="1280px" /><rect fill="rgb(215,8,8)" height="40px" width="40px" x="1000px" y="1280px" /><rect fill="rgb(215,8,8)" height="40px" width="40px" x="1040px" y="1280px" /><rect fill="rgb(215,8,8)" height="40px" width="40px" x="1080px" y="1280px" /><rect fill="rgb(255,255,255)" height="40px" width="40px" x="1120px" y="1280px" /><rect fill="rgb(255,255,255)" height="40px" width="40px" x="1160px" y="1280px" /><rect fill="rgb(162,3,3)" height="40px" width="40px" x="1200px" y="1280px" /><rect fill="rgb(50,60,57)" height="40px" width="40px" x="1240px" y="1280px" /><rect fill="rgb(50,60,57)" height="40px" width="40px" x="1560px" y="1280px" /><rect fill="rgb(50,60,57)" height="40px" width="40px" x="1600px" y="1280px" /><rect fill="rgb(50,60,57)" height="40px" width="40px" x="1640px" y="1280px" /><rect fill="rgb(50,60,57)" height="40px" width="40px" x="1680px" y="1280px" /><rect fill="rgb(50,60,57)" height="40px" width="40px" x="1720px" y="1280px" /><rect fill="rgb(50,60,57)" height="40px" width="40px" x="1760px" y="1280px" /><rect fill="rgb(0,0,0)" height="40px" width="40px" x="1800px" y="1280px" /><rect fill="rgb(0,0,0)" height="40px" width="40px" x="1840px" y="1280px" /><rect fill="rgb(0,0,0)" height="40px" width="40px" x="1880px" y="1280px" /><rect fill="rgb(0,0,0)" height="40px" width="40px" x="1920px" y="1280px" /><rect fill="rgb(50,60,57)" height="40px" width="40px" x="1960px" y="1280px" /><rect fill="rgb(50,60,57)" height="40px" width="40px" x="2000px" y="1280px" /><rect fill="rgb(50,60,57)" height="40px" width="40px" x="2040px" y="1280px" /><rect fill="rgb(50,60,57)" height="40px" width="40px" x="2080px" y="1280px" /><rect fill="rgb(50,60,57)" height="40px" width="40px" x="800px" y="1320px" /><rect fill="rgb(162,3,3)" height="40px" width="40px" x="840px" y="1320px" /><rect fill="rgb(198,17,17)" height="40px" width="40px" x="880px" y="1320px" /><rect fill="rgb(215,8,8)" height="40px" width="40px" x="920px" y="1320px" /><rect fill="rgb(215,8,8)" height="40px" width="40px" x="960px" y="1320px" /><rect fill="rgb(215,8,8)" height="40px" width="40px" x="1000px" y="1320px" /><rect fill="rgb(215,8,8)" height="40px" width="40px" x="1040px" y="1320px" /><rect fill="rgb(215,8,8)" height="40px" width="40px" x="1080px" y="1320px" /><rect fill="rgb(255,255,255)" height="40px" width="40px" x="1120px" y="1320px" /><rect fill="rgb(255,255,255)" height="40px" width="40px" x="1160px" y="1320px" /><rect fill="rgb(162,3,3)" height="40px" width="40px" x="1200px" y="1320px" /><rect fill="rgb(50,60,57)" height="40px" width="40px" x="1240px" y="1320px" /><rect fill="rgb(50,60,57)" height="40px" width="40px" x="1560px" y="1320px" /><rect fill="rgb(50,60,57)" height="40px" width="40px" x="1600px" y="1320px" /><rect fill="rgb(50,60,57)" height="40px" width="40px" x="1640px" y="1320px" /><rect fill="rgb(50,60,57)" height="40px" width="40px" x="1680px" y="1320px" /><rect fill="rgb(50,60,57)" height="40px" width="40px" x="1720px" y="1320px" /><rect fill="rgb(50,60,57)" height="40px" width="40px" x="1760px" y="1320px" /><rect fill="rgb(50,60,57)" height="40px" width="40px" x="1800px" y="1320px" /><rect fill="rgb(50,60,57)" height="40px" width="40px" x="1840px" y="1320px" /><rect fill="rgb(50,60,57)" height="40px" width="40px" x="1880px" y="1320px" /><rect fill="rgb(50,60,57)" height="40px" width="40px" x="1920px" y="1320px" /><rect fill="rgb(50,60,57)" height="40px" width="40px" x="1960px" y="1320px" /><rect fill="rgb(50,60,57)" height="40px" width="40px" x="2000px" y="1320px" /><rect fill="rgb(50,60,57)" height="40px" width="40px" x="2040px" y="1320px" /><rect fill="rgb(50,60,57)" height="40px" width="40px" x="2080px" y="1320px" /><rect fill="rgb(50,60,57)" height="40px" width="40px" x="800px" y="1360px" /><rect fill="rgb(162,3,3)" height="40px" width="40px" x="840px" y="1360px" /><rect fill="rgb(198,17,17)" height="40px" width="40px" x="880px" y="1360px" /><rect fill="rgb(215,8,8)" height="40px" width="40px" x="920px" y="1360px" /><rect fill="rgb(215,8,8)" height="40px" width="40px" x="960px" y="1360px" /><rect fill="rgb(215,8,8)" height="40px" width="40px" x="1000px" y="1360px" /><rect fill="rgb(215,8,8)" height="40px" width="40px" x="1040px" y="1360px" /><rect fill="rgb(215,8,8)" height="40px" width="40px" x="1080px" y="1360px" /><rect fill="rgb(255,255,255)" height="40px" width="40px" x="1120px" y="1360px" /><rect fill="rgb(255,255,255)" height="40px" width="40px" x="1160px" y="1360px" /><rect fill="rgb(162,3,3)" height="40px" width="40px" x="1200px" y="1360px" /><rect fill="rgb(50,60,57)" height="40px" width="40px" x="1240px" y="1360px" /><rect fill="rgb(50,60,57)" height="40px" width="40px" x="1560px" y="1360px" /><rect fill="rgb(50,60,57)" height="40px" width="40px" x="1600px" y="1360px" /><rect fill="rgb(50,60,57)" height="40px" width="40px" x="1640px" y="1360px" /><rect fill="rgb(203,219,252)" height="40px" width="40px" x="1680px" y="1360px" /><rect fill="rgb(203,219,252)" height="40px" width="40px" x="1720px" y="1360px" /><rect fill="rgb(203,219,252)" height="40px" width="40px" x="1760px" y="1360px" /><rect fill="rgb(203,219,252)" height="40px" width="40px" x="1800px" y="1360px" /><rect fill="rgb(203,219,252)" height="40px" width="40px" x="1840px" y="1360px" /><rect fill="rgb(203,219,252)" height="40px" width="40px" x="1880px" y="1360px" /><rect fill="rgb(203,219,252)" height="40px" width="40px" x="1920px" y="1360px" /><rect fill="rgb(203,219,252)" height="40px" width="40px" x="1960px" y="1360px" /><rect fill="rgb(50,60,57)" height="40px" width="40px" x="2000px" y="1360px" /><rect fill="rgb(50,60,57)" height="40px" width="40px" x="2040px" y="1360px" /><rect fill="rgb(50,60,57)" height="40px" width="40px" x="2080px" y="1360px" /><rect fill="rgb(50,60,57)" height="40px" width="40px" x="800px" y="1400px" /><rect fill="rgb(162,3,3)" height="40px" width="40px" x="840px" y="1400px" /><rect fill="rgb(255,255,255)" height="40px" width="40px" x="880px" y="1400px" /><rect fill="rgb(255,255,255)" height="40px" width="40px" x="920px" y="1400px" /><rect fill="rgb(255,255,255)" height="40px" width="40px" x="960px" y="1400px" /><rect fill="rgb(255,255,255)" height="40px" width="40px" x="1000px" y="1400px" /><rect fill="rgb(255,255,255)" height="40px" width="40px" x="1040px" y="1400px" /><rect fill="rgb(255,255,255)" height="40px" width="40px" x="1080px" y="1400px" /><rect fill="rgb(255,255,255)" height="40px" width="40px" x="1120px" y="1400px" /><rect fill="rgb(198,17,17)" height="40px" width="40px" x="1160px" y="1400px" /><rect fill="rgb(162,3,3)" height="40px" width="40px" x="1200px" y="1400px" /><rect fill="rgb(50,60,57)" height="40px" width="40px" x="1240px" y="1400px" /><rect fill="rgb(50,60,57)" height="40px" width="40px" x="1560px" y="1400px" /><rect fill="rgb(50,60,57)" height="40px" width="40px" x="1600px" y="1400px" /><rect fill="rgb(50,60,57)" height="40px" width="40px" x="1640px" y="1400px" /><rect fill="rgb(162,3,3)" height="40px" width="40px" x="1680px" y="1400px" /><rect fill="rgb(162,3,3)" height="40px" width="40px" x="1720px" y="1400px" /><rect fill="rgb(162,3,3)" height="40px" width="40px" x="1760px" y="1400px" /><rect fill="rgb(186,3,3)" height="40px" width="40px" x="1800px" y="1400px" /><rect fill="rgb(186,3,3)" height="40px" width="40px" x="1840px" y="1400px" /><rect fill="rgb(162,3,3)" height="40px" width="40px" x="1880px" y="1400px" /><rect fill="rgb(255,255,255)" height="40px" width="40px" x="1920px" y="1400px" /><rect fill="rgb(162,3,3)" height="40px" width="40px" x="1960px" y="1400px" /><rect fill="rgb(50,60,57)" height="40px" width="40px" x="2000px" y="1400px" /><rect fill="rgb(50,60,57)" height="40px" width="40px" x="2040px" y="1400px" /><rect fill="rgb(50,60,57)" height="40px" width="40px" x="2080px" y="1400px" /><rect fill="rgb(50,60,57)" height="40px" width="40px" x="800px" y="1440px" /><rect fill="rgb(50,60,57)" height="40px" width="40px" x="840px" y="1440px" /><rect fill="rgb(203,219,252)" height="40px" width="40px" x="880px" y="1440px" /><rect fill="rgb(203,219,252)" height="40px" width="40px" x="920px" y="1440px" /><rect fill="rgb(203,219,252)" height="40px" width="40px" x="960px" y="1440px" /><rect fill="rgb(203,219,252)" height="40px" width="40px" x="1000px" y="1440px" /><rect fill="rgb(203,219,252)" height="40px" width="40px" x="1040px" y="1440px" /><rect fill="rgb(203,219,252)" height="40px" width="40px" x="1080px" y="1440px" /><rect fill="rgb(203,219,252)" height="40px" width="40px" x="1120px" y="1440px" /><rect fill="rgb(203,219,252)" height="40px" width="40px" x="1160px" y="1440px" /><rect fill="rgb(50,60,57)" height="40px" width="40px" x="1200px" y="1440px" /><rect fill="rgb(50,60,57)" height="40px" width="40px" x="1240px" y="1440px" /><rect fill="rgb(50,60,57)" height="40px" width="40px" x="1560px" y="1440px" /><rect fill="rgb(50,60,57)" height="40px" width="40px" x="1600px" y="1440px" /><rect fill="rgb(162,3,3)" height="40px" width="40px" x="1640px" y="1440px" /><rect fill="rgb(198,17,17)" height="40px" width="40px" x="1680px" y="1440px" /><rect fill="rgb(198,17,17)" height="40px" width="40px" x="1720px" y="1440px" /><rect fill="rgb(215,8,8)" height="40px" width="40px" x="1760px" y="1440px" /><rect fill="rgb(215,8,8)" height="40px" width="40px" x="1800px" y="1440px" /><rect fill="rgb(215,8,8)" height="40px" width="40px" x="1840px" y="1440px" /><rect fill="rgb(215,8,8)" height="40px" width="40px" x="1880px" y="1440px" /><rect fill="rgb(255,255,255)" height="40px" width="40px" x="1920px" y="1440px" /><rect fill="rgb(198,17,17)" height="40px" width="40px" x="1960px" y="1440px" /><rect fill="rgb(162,3,3)" height="40px" width="40px" x="2000px" y="1440px" /><rect fill="rgb(50,60,57)" height="40px" width="40px" x="2040px" y="1440px" /><rect fill="rgb(50,60,57)" height="40px" width="40px" x="2080px" y="1440px" /><rect fill="rgb(50,60,57)" height="40px" width="40px" x="1560px" y="1480px" /><rect fill="rgb(50,60,57)" height="40px" width="40px" x="1600px" y="1480px" /><rect fill="rgb(162,3,3)" height="40px" width="40px" x="1640px" y="1480px" /><rect fill="rgb(198,17,17)" height="40px" width="40px" x="1680px" y="1480px" /><rect fill="rgb(215,8,8)" height="40px" width="40px" x="1720px" y="1480px" /><rect fill="rgb(215,8,8)" height="40px" width="40px" x="1760px" y="1480px" /><rect fill="rgb(215,8,8)" height="40px" width="40px" x="1800px" y="1480px" /><rect fill="rgb(215,8,8)" height="40px" width="40px" x="1840px" y="1480px" /><rect fill="rgb(215,8,8)" height="40px" width="40px" x="1880px" y="1480px" /><rect fill="rgb(255,255,255)" height="40px" width="40px" x="1920px" y="1480px" /><rect fill="rgb(198,17,17)" height="40px" width="40px" x="1960px" y="1480px" /><rect fill="rgb(162,3,3)" height="40px" width="40px" x="2000px" y="1480px" /><rect fill="rgb(50,60,57)" height="40px" width="40px" x="2040px" y="1480px" /><rect fill="rgb(50,60,57)" height="40px" width="40px" x="2080px" y="1480px" /><rect fill="rgb(50,60,57)" height="40px" width="40px" x="1560px" y="1520px" /><rect fill="rgb(50,60,57)" height="40px" width="40px" x="1600px" y="1520px" /><rect fill="rgb(162,3,3)" height="40px" width="40px" x="1640px" y="1520px" /><rect fill="rgb(198,17,17)" height="40px" width="40px" x="1680px" y="1520px" /><rect fill="rgb(215,8,8)" height="40px" width="40px" x="1720px" y="1520px" /><rect fill="rgb(215,8,8)" height="40px" width="40px" x="1760px" y="1520px" /><rect fill="rgb(215,8,8)" height="40px" width="40px" x="1800px" y="1520px" /><rect fill="rgb(215,8,8)" height="40px" width="40px" x="1840px" y="1520px" /><rect fill="rgb(215,8,8)" height="40px" width="40px" x="1880px" y="1520px" /><rect fill="rgb(255,255,255)" height="40px" width="40px" x="1920px" y="1520px" /><rect fill="rgb(198,17,17)" height="40px" width="40px" x="1960px" y="1520px" /><rect fill="rgb(162,3,3)" height="40px" width="40px" x="2000px" y="1520px" /><rect fill="rgb(50,60,57)" height="40px" width="40px" x="2040px" y="1520px" /><rect fill="rgb(50,60,57)" height="40px" width="40px" x="2080px" y="1520px" /><rect fill="rgb(50,60,57)" height="40px" width="40px" x="1560px" y="1560px" /><rect fill="rgb(50,60,57)" height="40px" width="40px" x="1600px" y="1560px" /><rect fill="rgb(162,3,3)" height="40px" width="40px" x="1640px" y="1560px" /><rect fill="rgb(198,17,17)" height="40px" width="40px" x="1680px" y="1560px" /><rect fill="rgb(215,8,8)" height="40px" width="40px" x="1720px" y="1560px" /><rect fill="rgb(215,8,8)" height="40px" width="40px" x="1760px" y="1560px" /><rect fill="rgb(215,8,8)" height="40px" width="40px" x="1800px" y="1560px" /><rect fill="rgb(215,8,8)" height="40px" width="40px" x="1840px" y="1560px" /><rect fill="rgb(215,8,8)" height="40px" width="40px" x="1880px" y="1560px" /><rect fill="rgb(255,255,255)" height="40px" width="40px" x="1920px" y="1560px" /><rect fill="rgb(198,17,17)" height="40px" width="40px" x="1960px" y="1560px" /><rect fill="rgb(162,3,3)" height="40px" width="40px" x="2000px" y="1560px" /><rect fill="rgb(50,60,57)" height="40px" width="40px" x="2040px" y="1560px" /><rect fill="rgb(50,60,57)" height="40px" width="40px" x="2080px" y="1560px" /><rect fill="rgb(50,60,57)" height="40px" width="40px" x="1560px" y="1600px" /><rect fill="rgb(50,60,57)" height="40px" width="40px" x="1600px" y="1600px" /><rect fill="rgb(162,3,3)" height="40px" width="40px" x="1640px" y="1600px" /><rect fill="rgb(198,17,17)" height="40px" width="40px" x="1680px" y="1600px" /><rect fill="rgb(215,8,8)" height="40px" width="40px" x="1720px" y="1600px" /><rect fill="rgb(215,8,8)" height="40px" width="40px" x="1760px" y="1600px" /><rect fill="rgb(215,8,8)" height="40px" width="40px" x="1800px" y="1600px" /><rect fill="rgb(215,8,8)" height="40px" width="40px" x="1840px" y="1600px" /><rect fill="rgb(215,8,8)" height="40px" width="40px" x="1880px" y="1600px" /><rect fill="rgb(255,255,255)" height="40px" width="40px" x="1920px" y="1600px" /><rect fill="rgb(198,17,17)" height="40px" width="40px" x="1960px" y="1600px" /><rect fill="rgb(162,3,3)" height="40px" width="40px" x="2000px" y="1600px" /><rect fill="rgb(50,60,57)" height="40px" width="40px" x="2040px" y="1600px" /><rect fill="rgb(50,60,57)" height="40px" width="40px" x="2080px" y="1600px" /><rect fill="rgb(50,60,57)" height="40px" width="40px" x="1560px" y="1640px" /><rect fill="rgb(50,60,57)" height="40px" width="40px" x="1600px" y="1640px" /><rect fill="rgb(162,3,3)" height="40px" width="40px" x="1640px" y="1640px" /><rect fill="rgb(198,17,17)" height="40px" width="40px" x="1680px" y="1640px" /><rect fill="rgb(215,8,8)" height="40px" width="40px" x="1720px" y="1640px" /><rect fill="rgb(215,8,8)" height="40px" width="40px" x="1760px" y="1640px" /><rect fill="rgb(215,8,8)" height="40px" width="40px" x="1800px" y="1640px" /><rect fill="rgb(215,8,8)" height="40px" width="40px" x="1840px" y="1640px" /><rect fill="rgb(215,8,8)" height="40px" width="40px" x="1880px" y="1640px" /><rect fill="rgb(255,255,255)" height="40px" width="40px" x="1920px" y="1640px" /><rect fill="rgb(198,17,17)" height="40px" width="40px" x="1960px" y="1640px" /><rect fill="rgb(162,3,3)" height="40px" width="40px" x="2000px" y="1640px" /><rect fill="rgb(50,60,57)" height="40px" width="40px" x="2040px" y="1640px" /><rect fill="rgb(50,60,57)" height="40px" width="40px" x="2080px" y="1640px" /><rect fill="rgb(50,60,57)" height="40px" width="40px" x="1560px" y="1680px" /><rect fill="rgb(50,60,57)" height="40px" width="40px" x="1600px" y="1680px" /><rect fill="rgb(162,3,3)" height="40px" width="40px" x="1640px" y="1680px" /><rect fill="rgb(198,17,17)" height="40px" width="40px" x="1680px" y="1680px" /><rect fill="rgb(215,8,8)" height="40px" width="40px" x="1720px" y="1680px" /><rect fill="rgb(215,8,8)" height="40px" width="40px" x="1760px" y="1680px" /><rect fill="rgb(215,8,8)" height="40px" width="40px" x="1800px" y="1680px" /><rect fill="rgb(215,8,8)" height="40px" width="40px" x="1840px" y="1680px" /><rect fill="rgb(215,8,8)" height="40px" width="40px" x="1880px" y="1680px" /><rect fill="rgb(215,8,8)" height="40px" width="40px" x="1920px" y="1680px" /><rect fill="rgb(255,255,255)" height="40px" width="40px" x="1960px" y="1680px" /><rect fill="rgb(162,3,3)" height="40px" width="40px" x="2000px" y="1680px" /><rect fill="rgb(50,60,57)" height="40px" width="40px" x="2040px" y="1680px" /><rect fill="rgb(50,60,57)" height="40px" width="40px" x="2080px" y="1680px" /><rect fill="rgb(50,60,57)" height="40px" width="40px" x="1560px" y="1720px" /><rect fill="rgb(50,60,57)" height="40px" width="40px" x="1600px" y="1720px" /><rect fill="rgb(162,3,3)" height="40px" width="40px" x="1640px" y="1720px" /><rect fill="rgb(198,17,17)" height="40px" width="40px" x="1680px" y="1720px" /><rect fill="rgb(215,8,8)" height="40px" width="40px" x="1720px" y="1720px" /><rect fill="rgb(215,8,8)" height="40px" width="40px" x="1760px" y="1720px" /><rect fill="rgb(215,8,8)" height="40px" width="40px" x="1800px" y="1720px" /><rect fill="rgb(215,8,8)" height="40px" width="40px" x="1840px" y="1720px" /><rect fill="rgb(215,8,8)" height="40px" width="40px" x="1880px" y="1720px" /><rect fill="rgb(215,8,8)" height="40px" width="40px" x="1920px" y="1720px" /><rect fill="rgb(255,255,255)" height="40px" width="40px" x="1960px" y="1720px" /><rect fill="rgb(162,3,3)" height="40px" width="40px" x="2000px" y="1720px" /><rect fill="rgb(50,60,57)" height="40px" width="40px" x="2040px" y="1720px" /><rect fill="rgb(50,60,57)" height="40px" width="40px" x="2080px" y="1720px" /><rect fill="rgb(50,60,57)" height="40px" width="40px" x="1560px" y="1760px" /><rect fill="rgb(50,60,57)" height="40px" width="40px" x="1600px" y="1760px" /><rect fill="rgb(162,3,3)" height="40px" width="40px" x="1640px" y="1760px" /><rect fill="rgb(198,17,17)" height="40px" width="40px" x="1680px" y="1760px" /><rect fill="rgb(215,8,8)" height="40px" width="40px" x="1720px" y="1760px" /><rect fill="rgb(215,8,8)" height="40px" width="40px" x="1760px" y="1760px" /><rect fill="rgb(215,8,8)" height="40px" width="40px" x="1800px" y="1760px" /><rect fill="rgb(215,8,8)" height="40px" width="40px" x="1840px" y="1760px" /><rect fill="rgb(215,8,8)" height="40px" width="40px" x="1880px" y="1760px" /><rect fill="rgb(215,8,8)" height="40px" width="40px" x="1920px" y="1760px" /><rect fill="rgb(255,255,255)" height="40px" width="40px" x="1960px" y="1760px" /><rect fill="rgb(162,3,3)" height="40px" width="40px" x="2000px" y="1760px" /><rect fill="rgb(50,60,57)" height="40px" width="40px" x="2040px" y="1760px" /><rect fill="rgb(50,60,57)" height="40px" width="40px" x="2080px" y="1760px" /><rect fill="rgb(50,60,57)" height="40px" width="40px" x="1560px" y="1800px" /><rect fill="rgb(50,60,57)" height="40px" width="40px" x="1600px" y="1800px" /><rect fill="rgb(162,3,3)" height="40px" width="40px" x="1640px" y="1800px" /><rect fill="rgb(198,17,17)" height="40px" width="40px" x="1680px" y="1800px" /><rect fill="rgb(215,8,8)" height="40px" width="40px" x="1720px" y="1800px" /><rect fill="rgb(215,8,8)" height="40px" width="40px" x="1760px" y="1800px" /><rect fill="rgb(215,8,8)" height="40px" width="40px" x="1800px" y="1800px" /><rect fill="rgb(215,8,8)" height="40px" width="40px" x="1840px" y="1800px" /><rect fill="rgb(215,8,8)" height="40px" width="40px" x="1880px" y="1800px" /><rect fill="rgb(255,255,255)" height="40px" width="40px" x="1920px" y="1800px" /><rect fill="rgb(255,255,255)" height="40px" width="40px" x="1960px" y="1800px" /><rect fill="rgb(162,3,3)" height="40px" width="40px" x="2000px" y="1800px" /><rect fill="rgb(50,60,57)" height="40px" width="40px" x="2040px" y="1800px" /><rect fill="rgb(50,60,57)" height="40px" width="40px" x="2080px" y="1800px" /><rect fill="rgb(50,60,57)" height="40px" width="40px" x="1560px" y="1840px" /><rect fill="rgb(50,60,57)" height="40px" width="40px" x="1600px" y="1840px" /><rect fill="rgb(162,3,3)" height="40px" width="40px" x="1640px" y="1840px" /><rect fill="rgb(198,17,17)" height="40px" width="40px" x="1680px" y="1840px" /><rect fill="rgb(215,8,8)" height="40px" width="40px" x="1720px" y="1840px" /><rect fill="rgb(215,8,8)" height="40px" width="40px" x="1760px" y="1840px" /><rect fill="rgb(215,8,8)" height="40px" width="40px" x="1800px" y="1840px" /><rect fill="rgb(215,8,8)" height="40px" width="40px" x="1840px" y="1840px" /><rect fill="rgb(215,8,8)" height="40px" width="40px" x="1880px" y="1840px" /><rect fill="rgb(255,255,255)" height="40px" width="40px" x="1920px" y="1840px" /><rect fill="rgb(255,255,255)" height="40px" width="40px" x="1960px" y="1840px" /><rect fill="rgb(162,3,3)" height="40px" width="40px" x="2000px" y="1840px" /><rect fill="rgb(50,60,57)" height="40px" width="40px" x="2040px" y="1840px" /><rect fill="rgb(50,60,57)" height="40px" width="40px" x="2080px" y="1840px" /><rect fill="rgb(50,60,57)" height="40px" width="40px" x="1560px" y="1880px" /><rect fill="rgb(50,60,57)" height="40px" width="40px" x="1600px" y="1880px" /><rect fill="rgb(162,3,3)" height="40px" width="40px" x="1640px" y="1880px" /><rect fill="rgb(198,17,17)" height="40px" width="40px" x="1680px" y="1880px" /><rect fill="rgb(215,8,8)" height="40px" width="40px" x="1720px" y="1880px" /><rect fill="rgb(215,8,8)" height="40px" width="40px" x="1760px" y="1880px" /><rect fill="rgb(215,8,8)" height="40px" width="40px" x="1800px" y="1880px" /><rect fill="rgb(215,8,8)" height="40px" width="40px" x="1840px" y="1880px" /><rect fill="rgb(215,8,8)" height="40px" width="40px" x="1880px" y="1880px" /><rect fill="rgb(255,255,255)" height="40px" width="40px" x="1920px" y="1880px" /><rect fill="rgb(255,255,255)" height="40px" width="40px" x="1960px" y="1880px" /><rect fill="rgb(162,3,3)" height="40px" width="40px" x="2000px" y="1880px" /><rect fill="rgb(50,60,57)" height="40px" width="40px" x="2040px" y="1880px" /><rect fill="rgb(50,60,57)" height="40px" width="40px" x="2080px" y="1880px" /><rect fill="rgb(50,60,57)" height="40px" width="40px" x="1560px" y="1920px" /><rect fill="rgb(50,60,57)" height="40px" width="40px" x="1600px" y="1920px" /><rect fill="rgb(162,3,3)" height="40px" width="40px" x="1640px" y="1920px" /><rect fill="rgb(255,255,255)" height="40px" width="40px" x="1680px" y="1920px" /><rect fill="rgb(255,255,255)" height="40px" width="40px" x="1720px" y="1920px" /><rect fill="rgb(255,255,255)" height="40px" width="40px" x="1760px" y="1920px" /><rect fill="rgb(255,255,255)" height="40px" width="40px" x="1800px" y="1920px" /><rect fill="rgb(255,255,255)" height="40px" width="40px" x="1840px" y="1920px" /><rect fill="rgb(255,255,255)" height="40px" width="40px" x="1880px" y="1920px" /><rect fill="rgb(255,255,255)" height="40px" width="40px" x="1920px" y="1920px" /><rect fill="rgb(198,17,17)" height="40px" width="40px" x="1960px" y="1920px" /><rect fill="rgb(162,3,3)" height="40px" width="40px" x="2000px" y="1920px" /><rect fill="rgb(50,60,57)" height="40px" width="40px" x="2040px" y="1920px" /><rect fill="rgb(50,60,57)" height="40px" width="40px" x="2080px" y="1920px" /></svg>