<?xml version="1.0" encoding="utf-8" ?>
<svg baseProfile="full" height="2000px" version="1.1" width="1320px" xmlns="http://www.w3.org/2000/svg" xmlns:ev="http://www.w3.org/2001/xml-events" xmlns:xlink="http://www.w3.org/1999/xlink"><defs /><rect fill="rgb(34,32,52)" height="40px" width="40px" x="320px" y="1360px" /><rect fill="rgb(34,32,52)" height="40px" width="40px" x="360px" y="1360px" /><rect fill="rgb(34,32,52)" height="40px" width="40px" x="400px" y="1360px" /><rect fill="rgb(34,32,52)" height="40px" width="40px" x="440px" y="1360px" /><rect fill="rgb(34,32,52)" height="40px" width="40px" x="480px" y="1360px" /><rect fill="rgb(34,32,52)" height="40px" width="40px" x="520px" y="1360px" /><rect fill="rgb(34,32,52)" height="40px" width="40px" x="560px" y="1360px" /><rect fill="rgb(34,32,52)" height="40px" width="40px" x="600px" y="1360px" /><rect fill="rgb(34,32,52)" height="40px" width="40px" x="640px" y="1360px" /><rect fill="rgb(34,32,52)" height="40px" width="40px" x="680px" y="1360px" /><rect fill="rgb(34,32,52)" height="40px" width="40px" x="720px" y="1360px" /><rect fill="rgb(34,32,52)" height="40px" width="40px" x="760px" y="1360px" /><rect fill="rgb(34,32,52)" height="40px" width="40px" x="800px" y="1360px" /><rect fill="rgb(34,32,52)" height="40px" width="40px" x="840px" y="1360px" /><rect fill="rgb(34,32,52)" height="40px" width="40px" x="880px" y="1360px" /><rect fill="rgb(34,32,52)" height="40px" width="40px" x="920px" y="1360px" /><rect fill="rgb(34,32,52)" height="40px" width="40px" x="960px" y="1360px" /><rect fill="rgb(34,32,52)" height="40px" width="40px" x="280px" y="1400px" /><rect fill="rgb(195,150,24)" height="40px" width="40px" x="320px" y="1400px" /><rect fill="rgb(76,36,17)" height="40px" width="40px" x="360px" y="1400px" /><rect fill="rgb(76,36,17)" height="40px" width="40px" x="400px" y="1400px" /><rect fill="rgb(96,39,13)" height="40px" width="40px" x="440px" y="1400px" /><rect fill="rgb(96,39,13)" height="40px" width="40px" x="480px" y="1400px" /><rect fill="rgb(96,39,13)" height="40px" width="40px" x="520px" y="1400px" /><rect fill="rgb(195,150,24)" height="40px" width="40px" x="560px" y="1400px" /><rect fill="rgb(195,150,24)" height="40px" width="40px" x="600px" y="1400px" /><rect fill="rgb(195,150,24)" height="40px" width="40px" x="640px" y="1400px" /><rect fill="rgb(255,242,13)" height="40px" width="40px" x="680px" y="1400px" /><rect fill="rgb(255,242,13)" height="40px" width="40px" x="720px" y="1400px" /><rect fill="rgb(96,39,13)" height="40px" width="40px" x="760px" y="1400px" /><rect fill="rgb(96,39,13)" height="40px" width="40px" x="800px" y="1400px" /><rect fill="rgb(96,39,13)" height="40px" width="40px" x="840px" y="1400px" /><rect fill="rgb(96,39,13)" height="40px" width="40px" x="880px" y="1400px" /><rect fill="rgb(76,36,17)" height="40px" width="40px" x="920px" y="1400px" /><rect fill="rgb(195,150,24)" height="40px" width="40px" x="960px" y="1400px" /><rect fill="rgb(34,32,52)" height="40px" width="40px" x="1000px" y="1400px" /><rect fill="rgb(34,32,52)" height="40px" width="40px" x="280px" y="1440px" /><rect fill="rgb(251,188,13)" height="40px" width="40px" x="320px" y="1440px" /><rect fill="rgb(251,188,13)" height="40px" width="40px" x="360px" y="1440px" /><rect fill="rgb(251,188,13)" height="40px" width="40px" x="400px" y="1440px" /><rect fill="rgb(251,188,13)" height="40px" width="40px" x="440px" y="1440px" /><rect fill="rgb(251,188,13)" height="40px" width="40px" x="480px" y="1440px" /><rect fill="rgb(251,188,13)" height="40px" width="40px" x="520px" y="1440px" /><rect fill="rgb(195,150,24)" height="40px" width="40px" x="560px" y="1440px" /><rect fill="rgb(34,32,52)" height="40px" width="40px" x="600px" y="1440px" /><rect fill="rgb(251,188,13)" height="40px" width="40px" x="640px" y="1440px" /><rect fill="rgb(68,65,96)" height="40px" width="40px" x="680px" y="1440px" /><rect fill="rgb(255,242,13)" height="40px" width="40px" x="720px" y="1440px" /><rect fill="rgb(251,242,54)" height="40px" width="40px" x="760px" y="1440px" /><rect fill="rgb(251,242,54)" height="40px" width="40px" x="800px" y="1440px" /><rect fill="rgb(251,242,54)" height="40px" width="40px" x="840px" y="1440px" /><rect fill="rgb(251,242,54)" height="40px" width="40px" x="880px" y="1440px" /><rect fill="rgb(251,188,13)" height="40px" width="40px" x="920px" y="1440px" /><rect fill="rgb(251,188,13)" height="40px" width="40px" x="960px" y="1440px" /><rect fill="rgb(34,32,52)" height="40px" width="40px" x="1000px" y="1440px" /><rect fill="rgb(34,32,52)" height="40px" width="40px" x="280px" y="1480px" /><rect fill="rgb(251,188,13)" height="40px" width="40px" x="320px" y="1480px" /><rect fill="rgb(34,32,52)" height="40px" width="40px" x="360px" y="1480px" /><rect fill="rgb(34,32,52)" height="40px" width="40px" x="400px" y="1480px" /><rect fill="rgb(34,32,52)" height="40px" width="40px" x="440px" y="1480px" /><rect fill="rgb(34,32,52)" height="40px" width="40px" x="480px" y="1480px" /><rect fill="rgb(34,32,52)" height="40px" width="40px" x="520px" y="1480px" /><rect fill="rgb(195,150,24)" height="40px" width="40px" x="560px" y="1480px" /><rect fill="rgb(195,150,24)" height="40px" width="40px" x="600px" y="1480px" /><rect fill="rgb(251,188,13)" height="40px" width="40px" x="640px" y="1480px" /><rect fill="rgb(251,242,54)" height="40px" width="40px" x="680px" y="1480px" /><rect fill="rgb(251,242,54)" height="40px" width="40px" x="720px" y="1480px" /><rect fill="rgb(34,32,52)" height="40px" width="40px" x="760px" y="1480px" /><rect fill="rgb(34,32,52)" height="40px" width="40px" x="800px" y="1480px" /><rect fill="rgb(34,32,52)" height="40px" width="40px" x="840px" y="1480px" /><rect fill="rgb(34,32,52)" height="40px" width="40px" x="880px" y="1480px" /><rect fill="rgb(34,32,52)" height="40px" width="40px" x="920px" y="1480px" /><rect fill="rgb(251,188,13)" height="40px" width="40px" x="960px" y="1480px" /><rect fill="rgb(34,32,52)" height="40px" width="40px" x="1000px" y="1480px" /><rect fill="rgb(34,32,52)" height="40px" width="40px" x="280px" y="1520px" /><rect fill="rgb(251,188,13)" height="40px" width="40px" x="320px" y="1520px" /><rect fill="rgb(34,32,52)" height="40px" width="40px" x="360px" y="1520px" /><rect fill="rgb(34,32,52)" height="40px" width="40px" x="400px" y="1520px" /><rect fill="rgb(34,32,52)" height="40px" width="40px" x="440px" y="1520px" /><rect fill="rgb(34,32,52)" height="40px" width="40px" x="480px" y="1520px" /><rect fill="rgb(34,32,52)" height="40px" width="40px" x="520px" y="1520px" /><rect fill="rgb(34,32,52)" height="40px" width="40px" x="560px" y="1520px" /><rect fill="rgb(34,32,52)" height="40px" width="40px" x="600px" y="1520px" /><rect fill="rgb(34,32,52)" height="40px" width="40px" x="640px" y="1520px" /><rect fill="rgb(34,32,52)" height="40px" width="40px" x="680px" y="1520px" /><rect fill="rgb(34,32,52)" height="40px" width="40px" x="720px" y="1520px" /><rect fill="rgb(34,32,52)" height="40px" width="40px" x="760px" y="1520px" /><rect fill="rgb(34,32,52)" height="40px" width="40px" x="800px" y="1520px" /><rect fill="rgb(34,32,52)" height="40px" width="40px" x="840px" y="1520px" /><rect fill="rgb(34,32,52)" height="40px" width="40px" x="880px" y="1520px" /><rect fill="rgb(34,32,52)" height="40px" width="40px" x="920px" y="1520px" /><rect fill="rgb(251,188,13)" height="40px" width="40px" x="960px" y="1520px" /><rect fill="rgb(34,32,52)" height="40px" width="40px" x="1000px" y="1520px" /><rect fill="rgb(34,32,52)" height="40px" width="40px" x="280px" y="1560px" /><rect fill="rgb(251,188,13)" height="40px" width="40px" x="320px" y="1560px" /><rect fill="rgb(34,32,52)" height="40px" width="40px" x="360px" y="1560px" /><rect fill="rgb(34,32,52)" height="40px" width="40px" x="400px" y="1560px" /><rect fill="rgb(34,32,52)" height="40px" width="40px" x="440px" y="1560px" /><rect fill="rgb(34,32,52)" height="40px" width="40px" x="480px" y="1560px" /><rect fill="rgb(34,32,52)" height="40px" width="40px" x="520px" y="1560px" /><rect fill="rgb(34,32,52)" height="40px" width="40px" x="560px" y="1560px" /><rect fill="rgb(34,32,52)" height="40px" width="40px" x="600px" y="1560px" /><rect fill="rgb(34,32,52)" height="40px" width="40px" x="640px" y="1560px" /><rect fill="rgb(34,32,52)" height="40px" width="40px" x="680px" y="1560px" /><rect fill="rgb(34,32,52)" height="40px" width="40px" x="720px" y="1560px" /><rect fill="rgb(34,32,52)" height="40px" width="40px" x="760px" y="1560px" /><rect fill="rgb(34,32,52)" height="40px" width="40px" x="800px" y="1560px" /><rect fill="rgb(34,32,52)" height="40px" width="40px" x="840px" y="1560px" /><rect fill="rgb(34,32,52)" height="40px" width="40px" x="880px" y="1560px" /><rect fill="rgb(34,32,52)" height="40px" width="40px" x="920px" y="1560px" /><rect fill="rgb(251,188,13)" height="40px" width="40px" x="960px" y="1560px" /><rect fill="rgb(34,32,52)" height="40px" width="40px" x="1000px" y="1560px" /><rect fill="rgb(34,32,52)" height="40px" width="40px" x="280px" y="1600px" /><rect fill="rgb(251,188,13)" height="40px" width="40px" x="320px" y="1600px" /><rect fill="rgb(34,32,52)" height="40px" width="40px" x="360px" y="1600px" /><rect fill="rgb(34,32,52)" height="40px" width="40px" x="400px" y="1600px" /><rect fill="rgb(34,32,52)" height="40px" width="40px" x="440px" y="1600px" /><rect fill="rgb(34,32,52)" height="40px" width="40px" x="480px" y="1600px" /><rect fill="rgb(34,32,52)" height="40px" width="40px" x="520px" y="1600px" /><rect fill="rgb(34,32,52)" height="40px" width="40px" x="560px" y="1600px" /><rect fill="rgb(34,32,52)" height="40px" width="40px" x="600px" y="1600px" /><rect fill="rgb(34,32,52)" height="40px" width="40px" x="640px" y="1600px" /><rect fill="rgb(34,32,52)" height="40px" width="40px" x="680px" y="1600px" /><rect fill="rgb(34,32,52)" height="40px" width="40px" x="720px" y="1600px" /><rect fill="rgb(34,32,52)" height="40px" width="40px" x="760px" y="1600px" /><rect fill="rgb(34,32,52)" height="40px" width="40px" x="800px" y="1600px" /><rect fill="rgb(34,32,52)" height="40px" width="40px" x="840px" y="1600px" /><rect fill="rgb(34,32,52)" height="40px" width="40px" x="880px" y="1600px" /><rect fill="rgb(34,32,52)" height="40px" width="40px" x="920px" y="1600px" /><rect fill="rgb(251,188,13)" height="40px" width="40px" x="960px" y="1600px" /><rect fill="rgb(34,32,52)" height="40px" width="40px" x="1000px" y="1600px" /><rect fill="rgb(34,32,52)" height="40px" width="40px" x="280px" y="1640px" /><rect fill="rgb(251,188,13)" height="40px" width="40px" x="320px" y="1640px" /><rect fill="rgb(251,188,13)" height="40px" width="40px" x="360px" y="1640px" /><rect fill="rgb(251,188,13)" height="40px" width="40px" x="400px" y="1640px" /><rect fill="rgb(251,188,13)" height="40px" width="40px" x="440px" y="1640px" /><rect fill="rgb(251,188,13)" height="40px" width="40px" x="480px" y="1640px" /><rect fill="rgb(251,188,13)" height="40px" width="40px" x="520px" y="1640px" /><rect fill="rgb(251,188,13)" height="40px" width="40px" x="560px" y="1640px" /><rect fill="rgb(251,188,13)" height="40px" width="40px" x="600px" y="1640px" /><rect fill="rgb(251,188,13)" height="40px" width="40px" x="640px" y="1640px" /><rect fill="rgb(251,188,13)" height="40px" width="40px" x="680px" y="1640px" /><rect fill="rgb(251,188,13)" height="40px" width="40px" x="720px" y="1640px" /><rect fill="rgb(251,188,13)" height="40px" width="40px" x="760px" y="1640px" /><rect fill="rgb(251,188,13)" height="40px" width="40px" x="800px" y="1640px" /><rect fill="rgb(251,188,13)" height="40px" width="40px" x="840px" y="1640px" /><rect fill="rgb(251,188,13)" height="40px" width="40px" x="880px" y="1640px" /><rect fill="rgb(251,188,13)" height="40px" width="40px" x="920px" y="1640px" /><rect fill="rgb(251,188,13)" height="40px" width="40px" x="960px" y="1640px" /><rect fill="rgb(34,32,52)" height="40px" width="40px" x="1000px" y="1640px" /><rect fill="rgb(34,32,52)" height="40px" width="40px" x="280px" y="1680px" /><rect fill="rgb(251,188,13)" height="40px" width="40px" x="320px" y="1680px" /><rect fill="rgb(76,36,17)" height="40px" width="40px" x="360px" y="1680px" /><rect fill="rgb(76,36,17)" height="40px" width="40px" x="400px" y="1680px" /><rect fill="rgb(76,36,17)" height="40px" width="40px" x="440px" y="1680px" /><rect fill="rgb(76,36,17)" height="40px" width="40px" x="480px" y="1680px" /><rect fill="rgb(76,36,17)" height="40px" width="40px" x="520px" y="1680px" /><rect fill="rgb(96,39,13)" height="40px" width="40px" x="560px" y="1680px" /><rect fill="rgb(102,57,49)" height="40px" width="40px" x="600px" y="1680px" /><rect fill="rgb(34,32,52)" height="40px" width="40px" x="640px" y="1680px" /><rect fill="rgb(143,86,59)" height="40px" width="40px" x="680px" y="1680px" /><rect fill="rgb(96,39,13)" height="40px" width="40px" x="720px" y="1680px" /><rect fill="rgb(96,39,13)" height="40px" width="40px" x="760px" y="1680px" /><rect fill="rgb(96,39,13)" height="40px" width="40px" x="800px" y="1680px" /><rect fill="rgb(96,39,13)" height="40px" width="40px" x="840px" y="1680px" /><rect fill="rgb(76,36,17)" height="40px" width="40px" x="880px" y="1680px" /><rect fill="rgb(76,36,17)" height="40px" width="40px" x="920px" y="1680px" /><rect fill="rgb(251,188,13)" height="40px" width="40px" x="960px" y="1680px" /><rect fill="rgb(34,32,52)" height="40px" width="40px" x="1000px" y="1680px" /><rect fill="rgb(34,32,52)" height="40px" width="40px" x="280px" y="1720px" /><rect fill="rgb(251,188,13)" height="40px" width="40px" x="320px" y="1720px" /><rect fill="rgb(76,36,17)" height="40px" width="40px" x="360px" y="1720px" /><rect fill="rgb(96,39,13)" height="40px" width="40px" x="400px" y="1720px" /><rect fill="rgb(96,39,13)" height="40px" width="40px" x="440px" y="1720px" /><rect fill="rgb(96,39,13)" height="40px" width="40px" x="480px" y="1720px" /><rect fill="rgb(96,39,13)" height="40px" width="40px" x="520px" y="1720px" /><rect fill="rgb(96,39,13)" height="40px" width="40px" x="560px" y="1720px" /><rect fill="rgb(96,39,13)" height="40px" width="40px" x="600px" y="1720px" /><rect fill="rgb(34,32,52)" height="40px" width="40px" x="640px" y="1720px" /><rect fill="rgb(96,39,13)" height="40px" width="40px" x="680px" y="1720px" /><rect fill="rgb(96,39,13)" height="40px" width="40px" x="720px" y="1720px" /><rect fill="rgb(96,39,13)" height="40px" width="40px" x="760px" y="1720px" /><rect fill="rgb(96,39,13)" height="40px" width="40px" x="800px" y="1720px" /><rect fill="rgb(96,39,13)" height="40px" width="40px" x="840px" y="1720px" /><rect fill="rgb(96,39,13)" height="40px" width="40px" x="880px" y="1720px" /><rect fill="rgb(76,36,17)" height="40px" width="40px" x="920px" y="1720px" /><rect fill="rgb(251,188,13)" height="40px" width="40px" x="960px" y="1720px" /><rect fill="rgb(34,32,52)" height="40px" width="40px" x="1000px" y="1720px" /><rect fill="rgb(34,32,52)" height="40px" width="40px" x="280px" y="1760px" /><rect fill="rgb(251,188,13)" height="40px" width="40px" x="320px" y="1760px" /><rect fill="rgb(76,36,17)" height="40px" width="40px" x="360px" y="1760px" /><rect fill="rgb(96,39,13)" height="40px" width="40px" x="400px" y="1760px" /><rect fill="rgb(96,39,13)" height="40px" width="40px" x="440px" y="1760px" /><rect fill="rgb(96,39,13)" height="40px" width="40px" x="480px" y="1760px" /><rect fill="rgb(96,39,13)" height="40px" width="40px" x="520px" y="1760px" /><rect fill="rgb(96,39,13)" height="40px" width="40px" x="560px" y="1760px" /><rect fill="rgb(96,39,13)" height="40px" width="40px" x="600px" y="1760px" /><rect fill="rgb(251,188,13)" height="40px" width="40px" x="640px" y="1760px" /><rect fill="rgb(96,39,13)" height="40px" width="40px" x="680px" y="1760px" /><rect fill="rgb(96,39,13)" height="40px" width="40px" x="720px" y="1760px" /><rect fill="rgb(96,39,13)" height="40px" width="40px" x="760px" y="1760px" /><rect fill="rgb(96,39,13)" height="40px" width="40px" x="800px" y="1760px" /><rect fill="rgb(96,39,13)" height="40px" width="40px" x="840px" y="1760px" /><rect fill="rgb(96,39,13)" height="40px" width="40px" x="880px" y="1760px" /><rect fill="rgb(96,39,13)" height="40px" width="40px" x="920px" y="1760px" /><rect fill="rgb(251,188,13)" height="40px" width="40px" x="960px" y="1760px" /><rect fill="rgb(34,32,52)" height="40px" width="40px" x="1000px" y="1760px" /><rect fill="rgb(34,32,52)" height="40px" width="40px" x="280px" y="1800px" /><rect fill="rgb(251,188,13)" height="40px" width="40px" x="320px" y="1800px" /><rect fill="rgb(76,36,17)" height="40px" width="40px" x="360px" y="1800px" /><rect fill="rgb(76,36,17)" height="40px" width="40px" x="400px" y="1800px" /><rect fill="rgb(96,39,13)" height="40px" width="40px" x="440px" y="1800px" /><rect fill="rgb(96,39,13)" height="40px" width="40px" x="480px" y="1800px" /><rect fill="rgb(96,39,13)" height="40px" width="40px" x="520px" y="1800px" /><rect fill="rgb(96,39,13)" height="40px" width="40px" x="560px" y="1800px" /><rect fill="rgb(96,39,13)" height="40px" width="40px" x="600px" y="1800px" /><rect fill="rgb(96,39,13)" height="40px" width="40px" x="640px" y="1800px" /><rect fill="rgb(96,39,13)" height="40px" width="40px" x="680px" y="1800px" /><rect fill="rgb(96,39,13)" height="40px" width="40px" x="720px" y="1800px" /><rect fill="rgb(96,39,13)" height="40px" width="40px" x="760px" y="1800px" /><rect fill="rgb(96,39,13)" height="40px" width="40px" x="800px" y="1800px" /><rect fill="rgb(96,39,13)" height="40px" width="40px" x="840px" y="1800px" /><rect fill="rgb(96,39,13)" height="40px" width="40px" x="880px" y="1800px" /><rect fill="rgb(96,39,13)" height="40px" width="40px" x="920px" y="1800px" /><rect fill="rgb(251,188,13)" height="40px" width="40px" x="960px" y="1800px" /><rect fill="rgb(34,32,52)" height="40px" width="40px" x="1000px" y="1800px" /><rect fill="rgb(34,32,52)" height="40px" width="40px" x="280px" y="1840px" /><rect fill="rgb(251,188,13)" height="40px" width="40px" x="320px" y="1840px" /><rect fill="rgb(76,36,17)" height="40px" width="40px" x="360px" y="1840px" /><rect fill="rgb(76,36,17)" height="40px" width="40px" x="400px" y="1840px" /><rect fill="rgb(76,36,17)" height="40px" width="40px" x="440px" y="1840px" /><rect fill="rgb(96,39,13)" height="40px" width="40px" x="480px" y="1840px" /><rect fill="rgb(96,39,13)" height="40px" width="40px" x="520px" y="1840px" /><rect fill="rgb(96,39,13)" height="40px" width="40px" x="560px" y="1840px" /><rect fill="rgb(96,39,13)" height="40px" width="40px" x="600px" y="1840px" /><rect fill="rgb(96,39,13)" height="40px" width="40px" x="640px" y="1840px" /><rect fill="rgb(96,39,13)" height="40px" width="40px" x="680px" y="1840px" /><rect fill="rgb(96,39,13)" height="40px" width="40px" x="720px" y="1840px" /><rect fill="rgb(96,39,13)" height="40px" width="40px" x="760px" y="1840px" /><rect fill="rgb(96,39,13)" height="40px" width="40px" x="800px" y="1840px" /><rect fill="rgb(96,39,13)" height="40px" width="40px" x="840px" y="1840px" /><rect fill="rgb(96,39,13)" height="40px" width="40px" x="880px" y="1840px" /><rect fill="rgb(96,39,13)" height="40px" width="40px" x="920px" y="1840px" /><rect fill="rgb(251,188,13)" height="40px" width="40px" x="960px" y="1840px" /><rect fill="rgb(34,32,52)" height="40px" width="40px" x="1000px" y="1840px" /><rect fill="rgb(34,32,52)" height="40px" width="40px" x="280px" y="1880px" /><rect fill="rgb(251,188,13)" height="40px" width="40px" x="320px" y="1880px" /><rect fill="rgb(76,36,17)" height="40px" width="40px" x="360px" y="1880px" /><rect fill="rgb(76,36,17)" height="40px" width="40px" x="400px" y="1880px" /><rect fill="rgb(76,36,17)" height="40px" width="40px" x="440px" y="1880px" /><rect fill="rgb(76,36,17)" height="40px" width="40px" x="480px" y="1880px" /><rect fill="rgb(76,36,17)" height="40px" width="40px" x="520px" y="1880px" /><rect fill="rgb(96,39,13)" height="40px" width="40px" x="560px" y="1880px" /><rect fill="rgb(96,39,13)" height="40px" width="40px" x="600px" y="1880px" /><rect fill="rgb(96,39,13)" height="40px" width="40px" x="640px" y="1880px" /><rect fill="rgb(96,39,13)" height="40px" width="40px" x="680px" y="1880px" /><rect fill="rgb(96,39,13)" height="40px" width="40px" x="720px" y="1880px" /><rect fill="rgb(96,39,13)" height="40px" width="40px" x="760px" y="1880px" /><rect fill="rgb(96,39,13)" height="40px" width="40px" x="800px" y="1880px" /><rect fill="rgb(96,39,13)" height="40px" width="40px" x="840px" y="1880px" /><rect fill="rgb(96,39,13)" height="40px" width="40px" x="880px" y="1880px" /><rect fill="rgb(96,39,13)" height="40px" width="40px" x="920px" y="1880px" /><rect fill="rgb(251,188,13)" height="40px" width="40px" x="960px" y="1880px" /><rect fill="rgb(34,32,52)" height="40px" width="40px" x="1000px" y="1880px" /><rect fill="rgb(34,32,52)" height="40px" width="40px" x="280px" y="1920px" /><rect fill="rgb(195,150,24)" height="40px" width="40px" x="320px" y="1920px" /><rect fill="rgb(251,188,13)" height="40px" width="40px" x="360px" y="1920px" /><rect fill="rgb(251,188,13)" height="40px" width="40px" x="400px" y="1920px" /><rect fill="rgb(251,188,13)" height="40px" width="40px" x="440px" y="1920px" /><rect fill="rgb(251,188,13)" height="40px" width="40px" x="480px" y="1920px" /><rect fill="rgb(251,188,13)" height="40px" width="40px" x="520px" y="1920px" /><rect fill="rgb(251,188,13)" height="40px" width="40px" x="560px" y="1920px" /><rect fill="rgb(251,188,13)" height="40px" width="40px" x="600px" y="1920px" /><rect fill="rgb(251,188,13)" height="40px" width="40px" x="640px" y="1920px" /><rect fill="rgb(251,188,13)" height="40px" width="40px" x="680px" y="1920px" /><rect fill="rgb(251,188,13)" height="40px" width="40px" x="720px" y="1920px" /><rect fill="rgb(251,188,13)" height="40px" width="40px" x="760px" y="1920px" /><rect fill="rgb(251,188,13)" height="40px" width="40px" x="800px" y="1920px" /><rect fill="rgb(251,188,13)" height="40px" width="40px" x="840px" y="1920px" /><rect fill="rgb(251,188,13)" height="40px" width="40px" x="880px" y="1920px" /><rect fill="rgb(251,188,13)" height="40px" width="40px" x="920px" y="1920px" /><rect fill="rgb(195,150,24)" height="40px" width="40px" x="960px" y="1920px" /><rect fill="rgb(34,32,52)" height="40px" width="40px" x="1000px" y="1920px" /><rect fill="rgb(34,32,52)" height="40px" width="40px" x="280px" y="1960px" /><rect fill="rgb(34,32,52)" height="40px" width="40px" x="320px" y="1960px" /><rect fill="rgb(34,32,52)" height="40px" width="40px" x="360px" y="1960px" /><rect fill="rgb(34,32,52)" height="40px" width="40px" x="400px" y="1960px" /><rect fill="rgb(34,32,52)" height="40px" width="40px" x="440px" y="1960px" /><rect fill="rgb(34,32,52)" height="40px" width="40px" x="480px" y="1960px" /><rect fill="rgb(34,32,52)" height="40px" width="40px" x="520px" y="1960px" /><rect fill="rgb(34,32,52)" height="40px" width="40px" x="560px" y="1960px" /><rect fill="rgb(34,32,52)" height="40px" width="40px" x="600px" y="1960px" /><rect fill="rgb(34,32,52)" height="40px" width="40px" x="640px" y="1960px" /><rect fill="rgb(34,32,52)" height="40px" width="40px" x="680px" y="1960px" /><rect fill="rgb(34,32,52)" height="40px" width="40px" x="720px" y="1960px" /><rect fill="rgb(34,32,52)" height="40px" width="40px" x="760px" y="1960px" /><rect fill="rgb(34,32,52)" height="40px" width="40px" x="800px" y="1960px" /><rect fill="rgb(34,32,52)" height="40px" width="40px" x="840px" y="1960px" /><rect fill="rgb(34,32,52)" height="40px" width="40px" x="880px" y="1960px" /><rect fill="rgb(34,32,52)" height="40px" width="40px" x="920px" y="1960px" /><rect fill="rgb(34,32,52)" height="40px" width="40px" x="960px" y="1960px" /><rect fill="rgb(34,32,52)" height="40px" width="40px" x="1000px" y="1960px" /></svg>