<svg display="none" version="1.1" xmlns="http://www.w3.org/2000/svg">

<defs>

<g  id="coin1"><rect fill="rgb(34,32,52)" height="40px" width="40px" x="120px" y="0px"/><rect fill="rgb(34,32,52)" height="40px" width="40px" x="160px" y="0px"/><rect fill="rgb(34,32,52)" height="40px" width="40px" x="200px" y="0px"/><rect fill="rgb(34,32,52)" height="40px" width="40px" x="240px" y="0px"/><rect fill="rgb(34,32,52)" height="40px" width="40px" x="280px" y="0px"/><rect fill="rgb(34,32,52)" height="40px" width="40px" x="80px" y="40px"/><rect fill="rgb(251,213,13)" height="40px" width="40px" x="120px" y="40px"/><rect fill="rgb(251,213,13)" height="40px" width="40px" x="160px" y="40px"/><rect fill="rgb(251,213,13)" height="40px" width="40px" x="200px" y="40px"/><rect fill="rgb(251,213,13)" height="40px" width="40px" x="240px" y="40px"/><rect fill="rgb(251,213,13)" height="40px" width="40px" x="280px" y="40px"/><rect fill="rgb(34,32,52)" height="40px" width="40px" x="320px" y="40px"/><rect fill="rgb(34,32,52)" height="40px" width="40px" x="40px" y="80px"/><rect fill="rgb(251,163,13)" height="40px" width="40px" x="80px" y="80px"/><rect fill="rgb(251,188,13)" height="40px" width="40px" x="120px" y="80px"/><rect fill="rgb(251,188,13)" height="40px" width="40px" x="160px" y="80px"/><rect fill="rgb(34,32,52)" height="40px" width="40px" x="200px" y="80px"/><rect fill="rgb(251,188,13)" height="40px" width="40px" x="240px" y="80px"/><rect fill="rgb(255,255,255)" height="40px" width="40px" x="280px" y="80px"/><rect fill="rgb(251,213,13)" height="40px" width="40px" x="320px" y="80px"/><rect fill="rgb(34,32,52)" height="40px" width="40px" x="360px" y="80px"/><rect fill="rgb(34,32,52)" height="40px" width="40px" x="0px" y="120px"/><rect fill="rgb(251,163,13)" height="40px" width="40px" x="40px" y="120px"/><rect fill="rgb(251,188,13)" height="40px" width="40px" x="80px" y="120px"/><rect fill="rgb(251,188,13)" height="40px" width="40px" x="120px" y="120px"/><rect fill="rgb(34,32,52)" height="40px" width="40px" x="160px" y="120px"/><rect fill="rgb(34,32,52)" height="40px" width="40px" x="200px" y="120px"/><rect fill="rgb(34,32,52)" height="40px" width="40px" x="240px" y="120px"/><rect fill="rgb(251,188,13)" height="40px" width="40px" x="280px" y="120px"/><rect fill="rgb(255,255,255)" height="40px" width="40px" x="320px" y="120px"/><rect fill="rgb(251,213,13)" height="40px" width="40px" x="360px" y="120px"/><rect fill="rgb(34,32,52)" height="40px" width="40px" x="400px" y="120px"/><rect fill="rgb(34,32,52)" height="40px" width="40px" x="0px" y="160px"/><rect fill="rgb(251,163,13)" height="40px" width="40px" x="40px" y="160px"/><rect fill="rgb(251,188,13)" height="40px" width="40px" x="80px" y="160px"/><rect fill="rgb(251,188,13)" height="40px" width="40px" x="120px" y="160px"/><rect fill="rgb(34,32,52)" height="40px" width="40px" x="160px" y="160px"/><rect fill="rgb(251,188,13)" height="40px" width="40px" x="200px" y="160px"/><rect fill="rgb(251,188,13)" height="40px" width="40px" x="240px" y="160px"/><rect fill="rgb(251,188,13)" height="40px" width="40px" x="280px" y="160px"/><rect fill="rgb(251,188,13)" height="40px" width="40px" x="320px" y="160px"/><rect fill="rgb(251,213,13)" height="40px" width="40px" x="360px" y="160px"/><rect fill="rgb(34,32,52)" height="40px" width="40px" x="400px" y="160px"/><rect fill="rgb(34,32,52)" height="40px" width="40px" x="0px" y="200px"/><rect fill="rgb(251,163,13)" height="40px" width="40px" x="40px" y="200px"/><rect fill="rgb(251,188,13)" height="40px" width="40px" x="80px" y="200px"/><rect fill="rgb(251,188,13)" height="40px" width="40px" x="120px" y="200px"/><rect fill="rgb(251,188,13)" height="40px" width="40px" x="160px" y="200px"/><rect fill="rgb(34,32,52)" height="40px" width="40px" x="200px" y="200px"/><rect fill="rgb(251,188,13)" height="40px" width="40px" x="240px" y="200px"/><rect fill="rgb(251,188,13)" height="40px" width="40px" x="280px" y="200px"/><rect fill="rgb(251,188,13)" height="40px" width="40px" x="320px" y="200px"/><rect fill="rgb(251,213,13)" height="40px" width="40px" x="360px" y="200px"/><rect fill="rgb(34,32,52)" height="40px" width="40px" x="400px" y="200px"/><rect fill="rgb(34,32,52)" height="40px" width="40px" x="0px" y="240px"/><rect fill="rgb(251,163,13)" height="40px" width="40px" x="40px" y="240px"/><rect fill="rgb(251,188,13)" height="40px" width="40px" x="80px" y="240px"/><rect fill="rgb(251,188,13)" height="40px" width="40px" x="120px" y="240px"/><rect fill="rgb(251,188,13)" height="40px" width="40px" x="160px" y="240px"/><rect fill="rgb(251,188,13)" height="40px" width="40px" x="200px" y="240px"/><rect fill="rgb(34,32,52)" height="40px" width="40px" x="240px" y="240px"/><rect fill="rgb(251,188,13)" height="40px" width="40px" x="280px" y="240px"/><rect fill="rgb(251,188,13)" height="40px" width="40px" x="320px" y="240px"/><rect fill="rgb(251,213,13)" height="40px" width="40px" x="360px" y="240px"/><rect fill="rgb(34,32,52)" height="40px" width="40px" x="400px" y="240px"/><rect fill="rgb(34,32,52)" height="40px" width="40px" x="0px" y="280px"/><rect fill="rgb(251,163,13)" height="40px" width="40px" x="40px" y="280px"/><rect fill="rgb(251,188,13)" height="40px" width="40px" x="80px" y="280px"/><rect fill="rgb(251,188,13)" height="40px" width="40px" x="120px" y="280px"/><rect fill="rgb(34,32,52)" height="40px" width="40px" x="160px" y="280px"/><rect fill="rgb(34,32,52)" height="40px" width="40px" x="200px" y="280px"/><rect fill="rgb(34,32,52)" height="40px" width="40px" x="240px" y="280px"/><rect fill="rgb(251,188,13)" height="40px" width="40px" x="280px" y="280px"/><rect fill="rgb(251,188,13)" height="40px" width="40px" x="320px" y="280px"/><rect fill="rgb(251,213,13)" height="40px" width="40px" x="360px" y="280px"/><rect fill="rgb(34,32,52)" height="40px" width="40px" x="400px" y="280px"/><rect fill="rgb(34,32,52)" height="40px" width="40px" x="40px" y="320px"/><rect fill="rgb(251,163,13)" height="40px" width="40px" x="80px" y="320px"/><rect fill="rgb(251,188,13)" height="40px" width="40px" x="120px" y="320px"/><rect fill="rgb(251,188,13)" height="40px" width="40px" x="160px" y="320px"/><rect fill="rgb(34,32,52)" height="40px" width="40px" x="200px" y="320px"/><rect fill="rgb(251,188,13)" height="40px" width="40px" x="240px" y="320px"/><rect fill="rgb(251,188,13)" height="40px" width="40px" x="280px" y="320px"/><rect fill="rgb(251,213,13)" height="40px" width="40px" x="320px" y="320px"/><rect fill="rgb(34,32,52)" height="40px" width="40px" x="360px" y="320px"/><rect fill="rgb(34,32,52)" height="40px" width="40px" x="80px" y="360px"/><rect fill="rgb(251,163,13)" height="40px" width="40px" x="120px" y="360px"/><rect fill="rgb(251,163,13)" height="40px" width="40px" x="160px" y="360px"/><rect fill="rgb(251,163,13)" height="40px" width="40px" x="200px" y="360px"/><rect fill="rgb(251,163,13)" height="40px" width="40px" x="240px" y="360px"/><rect fill="rgb(251,163,13)" height="40px" width="40px" x="280px" y="360px"/><rect fill="rgb(34,32,52)" height="40px" width="40px" x="320px" y="360px"/><rect fill="rgb(34,32,52)" height="40px" width="40px" x="120px" y="400px"/><rect fill="rgb(34,32,52)" height="40px" width="40px" x="160px" y="400px"/><rect fill="rgb(34,32,52)" height="40px" width="40px" x="200px" y="400px"/><rect fill="rgb(34,32,52)" height="40px" width="40px" x="240px" y="400px"/><rect fill="rgb(34,32,52)" height="40px" width="40px" x="280px" y="400px"/>
</g>
<g id="coin2"><defs/><rect fill="rgb(34,32,52)" height="40px" width="40px" x="160px" y="0px"/><rect fill="rgb(34,32,52)" height="40px" width="40px" x="200px" y="0px"/><rect fill="rgb(34,32,52)" height="40px" width="40px" x="240px" y="0px"/><rect fill="rgb(34,32,52)" height="40px" width="40px" x="120px" y="40px"/><rect fill="rgb(251,188,13)" height="40px" width="40px" x="160px" y="40px"/><rect fill="rgb(251,188,13)" height="40px" width="40px" x="200px" y="40px"/><rect fill="rgb(251,213,13)" height="40px" width="40px" x="240px" y="40px"/><rect fill="rgb(34,32,52)" height="40px" width="40px" x="280px" y="40px"/><rect fill="rgb(34,32,52)" height="40px" width="40px" x="120px" y="80px"/><rect fill="rgb(251,188,13)" height="40px" width="40px" x="160px" y="80px"/><rect fill="rgb(251,188,13)" height="40px" width="40px" x="200px" y="80px"/><rect fill="rgb(251,213,13)" height="40px" width="40px" x="240px" y="80px"/><rect fill="rgb(34,32,52)" height="40px" width="40px" x="280px" y="80px"/><rect fill="rgb(34,32,52)" height="40px" width="40px" x="120px" y="120px"/><rect fill="rgb(251,163,13)" height="40px" width="40px" x="160px" y="120px"/><rect fill="rgb(251,188,13)" height="40px" width="40px" x="200px" y="120px"/><rect fill="rgb(251,213,13)" height="40px" width="40px" x="240px" y="120px"/><rect fill="rgb(34,32,52)" height="40px" width="40px" x="280px" y="120px"/><rect fill="rgb(34,32,52)" height="40px" width="40px" x="120px" y="160px"/><rect fill="rgb(251,163,13)" height="40px" width="40px" x="160px" y="160px"/><rect fill="rgb(251,188,13)" height="40px" width="40px" x="200px" y="160px"/><rect fill="rgb(251,213,13)" height="40px" width="40px" x="240px" y="160px"/><rect fill="rgb(34,32,52)" height="40px" width="40px" x="280px" y="160px"/><rect fill="rgb(34,32,52)" height="40px" width="40px" x="120px" y="200px"/><rect fill="rgb(251,163,13)" height="40px" width="40px" x="160px" y="200px"/><rect fill="rgb(251,188,13)" height="40px" width="40px" x="200px" y="200px"/><rect fill="rgb(251,213,13)" height="40px" width="40px" x="240px" y="200px"/><rect fill="rgb(34,32,52)" height="40px" width="40px" x="280px" y="200px"/><rect fill="rgb(34,32,52)" height="40px" width="40px" x="120px" y="240px"/><rect fill="rgb(251,163,13)" height="40px" width="40px" x="160px" y="240px"/><rect fill="rgb(251,188,13)" height="40px" width="40px" x="200px" y="240px"/><rect fill="rgb(251,188,13)" height="40px" width="40px" x="240px" y="240px"/><rect fill="rgb(34,32,52)" height="40px" width="40px" x="280px" y="240px"/><rect fill="rgb(34,32,52)" height="40px" width="40px" x="120px" y="280px"/><rect fill="rgb(251,163,13)" height="40px" width="40px" x="160px" y="280px"/><rect fill="rgb(251,188,13)" height="40px" width="40px" x="200px" y="280px"/><rect fill="rgb(251,188,13)" height="40px" width="40px" x="240px" y="280px"/><rect fill="rgb(34,32,52)" height="40px" width="40px" x="280px" y="280px"/><rect fill="rgb(34,32,52)" height="40px" width="40px" x="120px" y="320px"/><rect fill="rgb(251,163,13)" height="40px" width="40px" x="160px" y="320px"/><rect fill="rgb(251,188,13)" height="40px" width="40px" x="200px" y="320px"/><rect fill="rgb(251,188,13)" height="40px" width="40px" x="240px" y="320px"/><rect fill="rgb(34,32,52)" height="40px" width="40px" x="280px" y="320px"/><rect fill="rgb(34,32,52)" height="40px" width="40px" x="120px" y="360px"/><rect fill="rgb(251,163,13)" height="40px" width="40px" x="160px" y="360px"/><rect fill="rgb(251,188,13)" height="40px" width="40px" x="200px" y="360px"/><rect fill="rgb(251,188,13)" height="40px" width="40px" x="240px" y="360px"/><rect fill="rgb(34,32,52)" height="40px" width="40px" x="280px" y="360px"/><rect fill="rgb(34,32,52)" height="40px" width="40px" x="160px" y="400px"/><rect fill="rgb(34,32,52)" height="40px" width="40px" x="200px" y="400px"/><rect fill="rgb(34,32,52)" height="40px" width="40px" x="240px" y="400px"/>
</g>
<g id="coin3"><defs/><rect fill="rgb(34,32,52)" height="40px" width="40px" x="120px" y="0px"/><rect fill="rgb(34,32,52)" height="40px" width="40px" x="160px" y="0px"/><rect fill="rgb(34,32,52)" height="40px" width="40px" x="200px" y="0px"/><rect fill="rgb(34,32,52)" height="40px" width="40px" x="240px" y="0px"/><rect fill="rgb(34,32,52)" height="40px" width="40px" x="280px" y="0px"/><rect fill="rgb(34,32,52)" height="40px" width="40px" x="80px" y="40px"/><rect fill="rgb(251,213,13)" height="40px" width="40px" x="120px" y="40px"/><rect fill="rgb(251,213,13)" height="40px" width="40px" x="160px" y="40px"/><rect fill="rgb(251,213,13)" height="40px" width="40px" x="200px" y="40px"/><rect fill="rgb(251,213,13)" height="40px" width="40px" x="240px" y="40px"/><rect fill="rgb(251,213,13)" height="40px" width="40px" x="280px" y="40px"/><rect fill="rgb(34,32,52)" height="40px" width="40px" x="320px" y="40px"/><rect fill="rgb(34,32,52)" height="40px" width="40px" x="40px" y="80px"/><rect fill="rgb(251,163,13)" height="40px" width="40px" x="80px" y="80px"/><rect fill="rgb(251,188,13)" height="40px" width="40px" x="120px" y="80px"/><rect fill="rgb(251,188,13)" height="40px" width="40px" x="160px" y="80px"/><rect fill="rgb(34,32,52)" height="40px" width="40px" x="200px" y="80px"/><rect fill="rgb(251,188,13)" height="40px" width="40px" x="240px" y="80px"/><rect fill="rgb(255,255,255)" height="40px" width="40px" x="280px" y="80px"/><rect fill="rgb(251,213,13)" height="40px" width="40px" x="320px" y="80px"/><rect fill="rgb(34,32,52)" height="40px" width="40px" x="360px" y="80px"/><rect fill="rgb(34,32,52)" height="40px" width="40px" x="0px" y="120px"/><rect fill="rgb(251,163,13)" height="40px" width="40px" x="40px" y="120px"/><rect fill="rgb(251,188,13)" height="40px" width="40px" x="80px" y="120px"/><rect fill="rgb(251,188,13)" height="40px" width="40px" x="120px" y="120px"/><rect fill="rgb(34,32,52)" height="40px" width="40px" x="160px" y="120px"/><rect fill="rgb(34,32,52)" height="40px" width="40px" x="200px" y="120px"/><rect fill="rgb(34,32,52)" height="40px" width="40px" x="240px" y="120px"/><rect fill="rgb(251,188,13)" height="40px" width="40px" x="280px" y="120px"/><rect fill="rgb(255,255,255)" height="40px" width="40px" x="320px" y="120px"/><rect fill="rgb(251,213,13)" height="40px" width="40px" x="360px" y="120px"/><rect fill="rgb(34,32,52)" height="40px" width="40px" x="400px" y="120px"/><rect fill="rgb(34,32,52)" height="40px" width="40px" x="0px" y="160px"/><rect fill="rgb(251,163,13)" height="40px" width="40px" x="40px" y="160px"/><rect fill="rgb(251,188,13)" height="40px" width="40px" x="80px" y="160px"/><rect fill="rgb(251,188,13)" height="40px" width="40px" x="120px" y="160px"/><rect fill="rgb(251,188,13)" height="40px" width="40px" x="160px" y="160px"/><rect fill="rgb(251,188,13)" height="40px" width="40px" x="200px" y="160px"/><rect fill="rgb(34,32,52)" height="40px" width="40px" x="240px" y="160px"/><rect fill="rgb(251,188,13)" height="40px" width="40px" x="280px" y="160px"/><rect fill="rgb(251,188,13)" height="40px" width="40px" x="320px" y="160px"/><rect fill="rgb(251,213,13)" height="40px" width="40px" x="360px" y="160px"/><rect fill="rgb(34,32,52)" height="40px" width="40px" x="400px" y="160px"/><rect fill="rgb(34,32,52)" height="40px" width="40px" x="0px" y="200px"/><rect fill="rgb(251,163,13)" height="40px" width="40px" x="40px" y="200px"/><rect fill="rgb(251,188,13)" height="40px" width="40px" x="80px" y="200px"/><rect fill="rgb(251,188,13)" height="40px" width="40px" x="120px" y="200px"/><rect fill="rgb(251,188,13)" height="40px" width="40px" x="160px" y="200px"/><rect fill="rgb(34,32,52)" height="40px" width="40px" x="200px" y="200px"/><rect fill="rgb(251,188,13)" height="40px" width="40px" x="240px" y="200px"/><rect fill="rgb(251,188,13)" height="40px" width="40px" x="280px" y="200px"/><rect fill="rgb(251,188,13)" height="40px" width="40px" x="320px" y="200px"/><rect fill="rgb(251,213,13)" height="40px" width="40px" x="360px" y="200px"/><rect fill="rgb(34,32,52)" height="40px" width="40px" x="400px" y="200px"/><rect fill="rgb(34,32,52)" height="40px" width="40px" x="0px" y="240px"/><rect fill="rgb(251,163,13)" height="40px" width="40px" x="40px" y="240px"/><rect fill="rgb(251,188,13)" height="40px" width="40px" x="80px" y="240px"/><rect fill="rgb(251,188,13)" height="40px" width="40px" x="120px" y="240px"/><rect fill="rgb(34,32,52)" height="40px" width="40px" x="160px" y="240px"/><rect fill="rgb(251,188,13)" height="40px" width="40px" x="200px" y="240px"/><rect fill="rgb(251,188,13)" height="40px" width="40px" x="240px" y="240px"/><rect fill="rgb(251,188,13)" height="40px" width="40px" x="280px" y="240px"/><rect fill="rgb(251,188,13)" height="40px" width="40px" x="320px" y="240px"/><rect fill="rgb(251,213,13)" height="40px" width="40px" x="360px" y="240px"/><rect fill="rgb(34,32,52)" height="40px" width="40px" x="400px" y="240px"/><rect fill="rgb(34,32,52)" height="40px" width="40px" x="0px" y="280px"/><rect fill="rgb(251,163,13)" height="40px" width="40px" x="40px" y="280px"/><rect fill="rgb(251,188,13)" height="40px" width="40px" x="80px" y="280px"/><rect fill="rgb(251,188,13)" height="40px" width="40px" x="120px" y="280px"/><rect fill="rgb(34,32,52)" height="40px" width="40px" x="160px" y="280px"/><rect fill="rgb(34,32,52)" height="40px" width="40px" x="200px" y="280px"/><rect fill="rgb(34,32,52)" height="40px" width="40px" x="240px" y="280px"/><rect fill="rgb(251,188,13)" height="40px" width="40px" x="280px" y="280px"/><rect fill="rgb(251,188,13)" height="40px" width="40px" x="320px" y="280px"/><rect fill="rgb(251,213,13)" height="40px" width="40px" x="360px" y="280px"/><rect fill="rgb(34,32,52)" height="40px" width="40px" x="400px" y="280px"/><rect fill="rgb(34,32,52)" height="40px" width="40px" x="40px" y="320px"/><rect fill="rgb(251,163,13)" height="40px" width="40px" x="80px" y="320px"/><rect fill="rgb(251,188,13)" height="40px" width="40px" x="120px" y="320px"/><rect fill="rgb(251,188,13)" height="40px" width="40px" x="160px" y="320px"/><rect fill="rgb(34,32,52)" height="40px" width="40px" x="200px" y="320px"/><rect fill="rgb(251,188,13)" height="40px" width="40px" x="240px" y="320px"/><rect fill="rgb(251,188,13)" height="40px" width="40px" x="280px" y="320px"/><rect fill="rgb(251,213,13)" height="40px" width="40px" x="320px" y="320px"/><rect fill="rgb(34,32,52)" height="40px" width="40px" x="360px" y="320px"/><rect fill="rgb(34,32,52)" height="40px" width="40px" x="80px" y="360px"/><rect fill="rgb(251,163,13)" height="40px" width="40px" x="120px" y="360px"/><rect fill="rgb(251,163,13)" height="40px" width="40px" x="160px" y="360px"/><rect fill="rgb(251,163,13)" height="40px" width="40px" x="200px" y="360px"/><rect fill="rgb(251,163,13)" height="40px" width="40px" x="240px" y="360px"/><rect fill="rgb(251,163,13)" height="40px" width="40px" x="280px" y="360px"/><rect fill="rgb(34,32,52)" height="40px" width="40px" x="320px" y="360px"/><rect fill="rgb(34,32,52)" height="40px" width="40px" x="120px" y="400px"/><rect fill="rgb(34,32,52)" height="40px" width="40px" x="160px" y="400px"/><rect fill="rgb(34,32,52)" height="40px" width="40px" x="200px" y="400px"/><rect fill="rgb(34,32,52)" height="40px" width="40px" x="240px" y="400px"/><rect fill="rgb(34,32,52)" height="40px" width="40px" x="280px" y="400px"/>
</g>
<g id="coin4"><defs/><rect fill="rgb(34,32,52)" height="40px" width="40px" x="160px" y="0px"/><rect fill="rgb(34,32,52)" height="40px" width="40px" x="200px" y="0px"/><rect fill="rgb(34,32,52)" height="40px" width="40px" x="240px" y="0px"/><rect fill="rgb(34,32,52)" height="40px" width="40px" x="120px" y="40px"/><rect fill="rgb(251,188,13)" height="40px" width="40px" x="160px" y="40px"/><rect fill="rgb(251,188,13)" height="40px" width="40px" x="200px" y="40px"/><rect fill="rgb(251,213,13)" height="40px" width="40px" x="240px" y="40px"/><rect fill="rgb(34,32,52)" height="40px" width="40px" x="280px" y="40px"/><rect fill="rgb(34,32,52)" height="40px" width="40px" x="120px" y="80px"/><rect fill="rgb(251,188,13)" height="40px" width="40px" x="160px" y="80px"/><rect fill="rgb(251,188,13)" height="40px" width="40px" x="200px" y="80px"/><rect fill="rgb(251,213,13)" height="40px" width="40px" x="240px" y="80px"/><rect fill="rgb(34,32,52)" height="40px" width="40px" x="280px" y="80px"/><rect fill="rgb(34,32,52)" height="40px" width="40px" x="120px" y="120px"/><rect fill="rgb(251,163,13)" height="40px" width="40px" x="160px" y="120px"/><rect fill="rgb(251,188,13)" height="40px" width="40px" x="200px" y="120px"/><rect fill="rgb(251,213,13)" height="40px" width="40px" x="240px" y="120px"/><rect fill="rgb(34,32,52)" height="40px" width="40px" x="280px" y="120px"/><rect fill="rgb(34,32,52)" height="40px" width="40px" x="120px" y="160px"/><rect fill="rgb(251,163,13)" height="40px" width="40px" x="160px" y="160px"/><rect fill="rgb(251,188,13)" height="40px" width="40px" x="200px" y="160px"/><rect fill="rgb(251,213,13)" height="40px" width="40px" x="240px" y="160px"/><rect fill="rgb(34,32,52)" height="40px" width="40px" x="280px" y="160px"/><rect fill="rgb(34,32,52)" height="40px" width="40px" x="120px" y="200px"/><rect fill="rgb(251,163,13)" height="40px" width="40px" x="160px" y="200px"/><rect fill="rgb(251,188,13)" height="40px" width="40px" x="200px" y="200px"/><rect fill="rgb(251,213,13)" height="40px" width="40px" x="240px" y="200px"/><rect fill="rgb(34,32,52)" height="40px" width="40px" x="280px" y="200px"/><rect fill="rgb(34,32,52)" height="40px" width="40px" x="120px" y="240px"/><rect fill="rgb(251,163,13)" height="40px" width="40px" x="160px" y="240px"/><rect fill="rgb(251,188,13)" height="40px" width="40px" x="200px" y="240px"/><rect fill="rgb(251,188,13)" height="40px" width="40px" x="240px" y="240px"/><rect fill="rgb(34,32,52)" height="40px" width="40px" x="280px" y="240px"/><rect fill="rgb(34,32,52)" height="40px" width="40px" x="120px" y="280px"/><rect fill="rgb(251,163,13)" height="40px" width="40px" x="160px" y="280px"/><rect fill="rgb(251,188,13)" height="40px" width="40px" x="200px" y="280px"/><rect fill="rgb(251,188,13)" height="40px" width="40px" x="240px" y="280px"/><rect fill="rgb(34,32,52)" height="40px" width="40px" x="280px" y="280px"/><rect fill="rgb(34,32,52)" height="40px" width="40px" x="120px" y="320px"/><rect fill="rgb(251,163,13)" height="40px" width="40px" x="160px" y="320px"/><rect fill="rgb(251,188,13)" height="40px" width="40px" x="200px" y="320px"/><rect fill="rgb(251,188,13)" height="40px" width="40px" x="240px" y="320px"/><rect fill="rgb(34,32,52)" height="40px" width="40px" x="280px" y="320px"/><rect fill="rgb(34,32,52)" height="40px" width="40px" x="120px" y="360px"/><rect fill="rgb(251,163,13)" height="40px" width="40px" x="160px" y="360px"/><rect fill="rgb(251,188,13)" height="40px" width="40px" x="200px" y="360px"/><rect fill="rgb(251,188,13)" height="40px" width="40px" x="240px" y="360px"/><rect fill="rgb(34,32,52)" height="40px" width="40px" x="280px" y="360px"/><rect fill="rgb(34,32,52)" height="40px" width="40px" x="160px" y="400px"/><rect fill="rgb(34,32,52)" height="40px" width="40px" x="200px" y="400px"/><rect fill="rgb(34,32,52)" height="40px" width="40px" x="240px" y="400px"/>
</g>




</defs>
</svg>